<svg enable-background="new 0 0 1200 301" viewBox="0 0 1200 301" xmlns="http://www.w3.org/2000/svg"><g fill="#fff"><path d="m240.3 197.4h-20.5c-15.3 0-28.4-10.1-33.2-24.2l11.6-4c3.1 9.2 11.6 15.9 21.6 15.9h20.5c7.2 0 13.3-6.3 13.3-13.9 0-8.7-9-11-18.3-12.3l-19-2.9c-12.9-1.8-30.6-6-30.6-24.6 0-14.3 11.4-26.2 25.3-26.2h20.5c15.3 0 28.4 10.1 33 24.2l-11.4 4c-3.3-9.2-11.6-15.7-21.6-15.7h-20.5c-7.2 0-13.3 6-13.3 13.7 0 9.6 11.6 11.4 20.8 12.8l18.1 2.5c14.2 2 29.1 7.8 29.1 24.6 0 14.4-11.2 26.1-25.4 26.1z"/><path d="m370.3 156.4c0 22.6-17.9 41-40 41-10.5 0-20.5-4-28-11.6v49.7h-12v-130.2h12v11.7c7.4-7.4 17.5-11.6 28-11.6 22.1 0 40 18.6 40 41.2zm-12-9.9c0-15.9-12.7-28.7-28-28.7s-28 12.8-28 28.7v9.8c0 15.7 12.7 28.7 28 28.7s28-13 28-28.7z"/><path d="m455.7 197.4v-8.7c-6.3 5.6-14.6 8.7-22.9 8.7h-19.4c-14 0-25.3-11.9-25.3-26 0-14.3 11.6-26.2 25.3-26.2h29.3c6.1 0 13.3-.9 13.3-8.5 0-13.7-11.6-18.8-22.9-18.8h-9.6c-9.8 0-18.6 6.3-21.8 15.7l-11.4-4c5-14.3 18.4-24 33.2-24h9.6c18.3 0 35 10.3 35 31.1v60.9h-12.2v-.2zm-13.3-39.9h-29.3c-7.2 0-13.3 6.3-13.3 13.9 0 7.4 6.1 13.7 13.3 13.7h19.4c12.7 0 22.9-10.7 22.9-23.7v-6c-4 1.7-8.4 2.1-13 2.1z"/><path d="m554.7 134.2c-4.6-9.8-14.4-16.3-25.1-16.3-15.3 0-28 13-28 28.7v9.8c0 15.7 12.7 28.7 28 28.7 10.7 0 20.5-6.3 25.1-16.6l10.9 5.4c-6.6 14.3-20.5 23.3-36.3 23.3-22.1 0-40-18.4-40-41v-9.9c0-22.6 17.9-41 40-41 15.5 0 29.5 9 36.3 23.3z"/><path d="m661.3 157.5h-67.7c.7 15.4 12.9 27.5 27.7 27.5 10.7 0 20.5-6.3 25.1-16.6l10.9 5.4c-6.6 14.3-20.5 23.3-36.3 23.3-22.1 0-40-18.4-40-41v-9.9c0-22.6 17.9-41 40-41s40 18.4 40 41v11.2h.3zm-40-39.6c-14.9 0-27.3 12.1-27.7 27.3h55.7c-.9-15-13.1-27.3-28-27.3z"/><path d="m775.3 197.4v-63.1c0-10.3-7.9-16.3-17.3-16.3-8.5 0-15.7 7.4-15.7 16.3v63.4h-12.2v-63.4c0-10.3-7.9-16.3-17.3-16.3-8.7 0-15.9 7.4-15.9 16.3v63.4h-12v-91.8h12v5.2c5.5-4 10.7-5.2 17.3-5.2 8.3 0 16.6 4 21.8 10.7 5.9-7.8 14-10.7 23.2-10.7 15.5 0 28 12.8 28 28.7v63.4h-11.8v-.6z"/><path d="m889.3 157.5h-67.7c.7 15.4 12.9 27.5 27.7 27.5 10.7 0 20.5-6.3 25.1-16.6l10.9 5.4c-6.6 14.3-20.5 23.3-36.3 23.3-22.1 0-40-18.4-40-41v-9.9c0-22.6 17.9-41 40-41s40 18.4 40 41v11.2h.3zm-39.9-39.6c-14.9 0-27.3 12.1-27.7 27.3h55.7c-.9-15-13.2-27.3-28-27.3z"/><path d="m963 197.4h-20.5c-15.3 0-28.4-10.1-33.2-24.2l11.6-4c3.1 9.2 11.6 15.9 21.6 15.9h20.5c7.2 0 13.3-6.3 13.3-13.9 0-8.7-9-11-18.3-12.3l-19-2.9c-12.9-1.8-30.6-6-30.6-24.6 0-14.3 11.4-26.2 25.3-26.2h20.5c15.3 0 28.4 10.1 33 24.2l-11.4 4c-3.3-9.2-11.6-15.7-21.6-15.7h-20.5c-7.2 0-13.3 6-13.3 13.7 0 9.6 11.6 11.4 20.8 12.8l18.1 2.5c14 1.8 29.1 7.6 29.1 24.4-.1 14.6-11.2 26.3-25.4 26.3z"/><path d="m1080.9 197.4v-50.8c0-15.9-12.7-28.7-28-28.7s-28 12.8-28 28.7v50.8h-12v-131.7h12v51.5c7.4-7.4 17.5-11.6 28-11.6 22.1 0 40 18.4 40 41v50.8z"/><path d="m147.3 196.2h-40.2l-2.9-6.8 17.4-17.8-17.4-17.8v-5.6l17.4-17.9-17.4-17.9 2.9-6.8h40.2l2.9 6.8-17.4 17.9 17.4 17.9v5.6l-17.4 17.8 17.4 17.8zm-30.7-8h21.3l-10.6-10.9zm-4-37.2 14.5 14.9 14.5-14.9-14.4-15zm3.9-37.4 10.7 11 10.6-11z"/></g></svg>