<svg width="160" height="160" xmlns="http://www.w3.org/2000/svg"><defs><filter id="a"><feColorMatrix in="SourceGraphic" values="0 0 0 0 0.000000 0 0 0 0 0.000000 0 0 0 0 0.000000 0 0 0 1.000000 0"/></filter></defs><g transform="translate(.033 .308)" fill="none" fill-rule="evenodd"><g filter="url(#a)"><g fill="#231F20"><path d="M88.369 8.308c-.04.435-.153.85-.338 1.242a3.113 3.113 0 01-.756 1.01 3.189 3.189 0 01-1.161.643c-.456.144-.974.193-1.555.146-.922-.076-1.657-.34-2.207-.793-.55-.452-.877-1.127-.982-2.024l1.98-.276c.033.369.163.672.39.91s.52.372.883.402c.592.048 1.012-.107 1.261-.469.249-.36.404-.873.465-1.537l.678-7.387 2.074.17-.732 7.963zM94.461 6.777a5.09 5.09 0 00-.167 1.753c.05.562.193 1.074.432 1.538.239.465.564.866.977 1.206a3.9 3.9 0 001.489.745c.58.157 1.134.193 1.665.108a3.725 3.725 0 001.45-.55 4.061 4.061 0 001.133-1.116c.32-.461.56-.996.721-1.603a4.644 4.644 0 00.142-1.658 4.079 4.079 0 00-.444-1.498 3.712 3.712 0 00-.988-1.192 4.05 4.05 0 00-1.498-.74 3.975 3.975 0 00-1.656-.113c-.525.08-1.004.26-1.438.536a4.02 4.02 0 00-1.122 1.076c-.314.44-.546.943-.696 1.508m-2.12-.437c.24-.905.604-1.689 1.095-2.35a5.71 5.71 0 011.726-1.563 5.517 5.517 0 012.185-.703c.796-.087 1.626-.014 2.491.22.877.226 1.644.572 2.3 1.04a5.477 5.477 0 011.566 1.7c.389.665.634 1.404.735 2.22.1.815.031 1.676-.208 2.581-.235.885-.595 1.65-1.081 2.294a5.683 5.683 0 01-1.728 1.538 5.79 5.79 0 01-2.204.715c-.805.095-1.646.031-2.524-.194-.864-.234-1.62-.59-2.267-1.067a5.664 5.664 0 01-1.549-1.703 5.724 5.724 0 01-.732-2.194c-.105-.804-.04-1.648.194-2.534M109.82 5.131l1.796.817-4.397 10.537-1.796-.816zM117.023 8.744l2.239 1.453.218 10.362.027.018 4.38-7.375 1.69 1.097-5.896 9.927-2.146-1.393-.17-10.662-.028-.017-4.52 7.613-1.69-1.097zM135.943 33.778c-.525.478-1.08.819-1.665 1.021a4.22 4.22 0 01-1.74.232 4.328 4.328 0 01-1.68-.502 5.293 5.293 0 01-1.489-1.193 5.377 5.377 0 01-1.01-1.631 4.576 4.576 0 01-.317-1.754c.012-.59.15-1.167.415-1.731.263-.565.659-1.086 1.184-1.566l5.516-5.027 1.393 1.574-5.467 4.983a3.366 3.366 0 00-.583.711 2.603 2.603 0 00-.353.922c-.06.333-.042.685.055 1.055.098.37.313.743.645 1.117.331.375.673.631 1.025.77.352.138.695.194 1.028.169.333-.025.646-.111.94-.258.293-.147.546-.317.76-.512l5.465-4.982 1.394 1.573-5.516 5.029zM145.664 40.245c.15-.355.191-.728.121-1.119a3.115 3.115 0 00-.86-1.65 1.89 1.89 0 00-.54-.375 1.347 1.347 0 00-.622-.119 1.323 1.323 0 00-.656.225c-.33.21-.51.488-.539.832-.03.344-.002.728.084 1.154.084.425.194.88.33 1.366.134.485.203.967.206 1.446.002.478-.098.945-.302 1.4-.203.454-.593.867-1.17 1.235-.522.334-1.039.528-1.549.582a3.249 3.249 0 01-1.457-.169 3.953 3.953 0 01-1.29-.781 5.671 5.671 0 01-1.05-1.258 6.192 6.192 0 01-.797-1.963c-.15-.696-.114-1.4.109-2.114l2.085.516c-.188.42-.263.86-.225 1.323a2.82 2.82 0 00.883 1.84c.182.17.38.302.593.4.214.096.437.142.67.136a1.32 1.32 0 00.68-.22c.357-.228.56-.52.607-.876a3.7 3.7 0 00-.049-1.176c-.08-.429-.188-.886-.323-1.37a5.655 5.655 0 01-.213-1.441c-.007-.477.089-.94.287-1.393.2-.451.587-.862 1.164-1.23.504-.322 1.004-.496 1.5-.521.495-.025.97.054 1.424.239.453.184.874.456 1.264.817.39.36.726.768 1.01 1.223.323.522.558 1.075.705 1.662.148.588.163 1.191.049 1.81l-2.129-.43zM149.226 54.323c-.6.178-1.125.433-1.574.766a4.04 4.04 0 00-1.077 1.167c-.268.444-.438.931-.509 1.46-.07.528-.02 1.08.152 1.656.173.577.435 1.07.786 1.478.351.409.761.726 1.23.952a4.06 4.06 0 001.541.39c.56.033 1.14-.039 1.74-.216a4.56 4.56 0 001.479-.74 4.039 4.039 0 001.038-1.154c.262-.442.425-.93.489-1.462a4.056 4.056 0 00-.162-1.663 4.019 4.019 0 00-.776-1.472 3.755 3.755 0 00-1.21-.95 4.052 4.052 0 00-1.503-.4 4.548 4.548 0 00-1.644.188m-.747-2.035c.894-.266 1.75-.361 2.57-.284a5.73 5.73 0 012.233.662c.67.367 1.252.866 1.746 1.5.493.637.867 1.383 1.125 2.242.27.866.38 1.7.328 2.503a5.43 5.43 0 01-.617 2.218 5.634 5.634 0 01-1.495 1.778c-.638.508-1.404.896-2.297 1.16-.873.26-1.711.348-2.515.268a5.725 5.725 0 01-2.211-.679 5.844 5.844 0 01-1.766-1.511c-.506-.637-.894-1.388-1.164-2.254-.257-.86-.354-1.69-.29-2.49.064-.8.274-1.535.628-2.204a5.654 5.654 0 011.474-1.763c.627-.506 1.378-.888 2.251-1.146M157.766 67.418l.22 2.729-8.131 6.294.003.033 8.58-.69.165 2.057-11.548.93-.21-2.613 8.397-6.431-.002-.033-8.858.714-.165-2.059zM147.982 92.497a6.985 6.985 0 00-.158 1.794c.026.58.148 1.105.365 1.575.218.47.545.873.982 1.208.437.335 1.002.574 1.698.716.685.14 1.295.156 1.832.048a3.173 3.173 0 001.383-.626c.383-.31.702-.703.955-1.18a6.293 6.293 0 00.575-1.628l.386-1.805-7.703-1.578-.315 1.476zm10.27-1.502l-.937 4.38a6.746 6.746 0 01-.798 2.048 5.29 5.29 0 01-1.438 1.59 5.312 5.312 0 01-2.042.893c-.778.168-1.649.154-2.612-.044-.973-.199-1.777-.552-2.411-1.059a5.427 5.427 0 01-1.467-1.758 5.984 5.984 0 01-.636-2.113 6.594 6.594 0 01.093-2.12l.887-4.143 11.362 2.326zM154.175 104.668l-.687 2.04-10.667-4.152.687-2.041zM146.886 115.343c.37-.053.699-.21.986-.469.288-.26.52-.57.696-.931.105-.215.183-.434.233-.658.05-.224.063-.443.038-.658a1.315 1.315 0 00-.733-1.05c-.34-.176-.66-.19-.96-.04a3.9 3.9 0 00-.911.663c-.31.292-.63.62-.962.985a5.284 5.284 0 01-1.091.92c-.395.246-.831.399-1.31.455-.479.057-1.016-.069-1.612-.379-.54-.28-.96-.625-1.262-1.039a3.355 3.355 0 01-.597-1.346 4.101 4.101 0 01-.005-1.514 5.773 5.773 0 01.509-1.55 6.078 6.078 0 011.22-1.695 3.86 3.86 0 011.802-.989l.627 2.066a2.477 2.477 0 00-1.207.483 2.75 2.75 0 00-.845 1.019 2.777 2.777 0 00-.23.687 2.286 2.286 0 00-.03.717c.027.234.102.45.224.648.123.198.298.356.526.474.368.191.712.217 1.03.077a3.51 3.51 0 00.947-.644c.314-.29.637-.618.97-.982a5.448 5.448 0 011.084-.922c.389-.25.82-.405 1.295-.464.474-.06 1.009.065 1.605.375.52.27.917.613 1.187 1.028.271.416.446.867.523 1.352.076.486.063.99-.038 1.512a5.96 5.96 0 01-.503 1.5 5.7 5.7 0 01-1.017 1.46 3.983 3.983 0 01-1.47.968l-.72-2.06zM139.058 126.783c.627-.074 1.122-.23 1.484-.468.363-.238.664-.524.906-.859.357-.5.595-1.015.712-1.548.116-.533.126-1.06.028-1.579a4.182 4.182 0 00-.59-1.475 4.612 4.612 0 00-1.147-1.225 4.983 4.983 0 00-1.571-.81 3.99 3.99 0 00-1.59-.154 3.75 3.75 0 00-1.48.492c-.468.27-.881.655-1.24 1.154-.28.39-.46.836-.542 1.34-.083.503-.037 1.062.134 1.678l-2.002.677c-.274-.874-.319-1.723-.136-2.548a6.196 6.196 0 011.037-2.298c.535-.743 1.143-1.337 1.824-1.782a5.595 5.595 0 012.153-.856 5.578 5.578 0 012.31.108c.787.198 1.548.573 2.286 1.125.755.564 1.35 1.204 1.786 1.921a5.91 5.91 0 01.82 2.236c.114.773.065 1.56-.146 2.356-.21.797-.584 1.567-1.118 2.31a5.755 5.755 0 01-1.645 1.562c-.627.387-1.384.618-2.271.694l-.002-2.05zM132.563 130.61a4.954 4.954 0 00-1.365-1.059 4.033 4.033 0 00-1.507-.447 3.776 3.776 0 00-1.521.183c-.502.166-.973.45-1.413.85a3.952 3.952 0 00-.977 1.334 3.706 3.706 0 00-.317 1.498c.001.511.11 1.022.321 1.53.213.509.528.99.946 1.443.39.42.823.75 1.3.987.478.238.97.377 1.479.417.51.04 1.014-.026 1.516-.2a4.07 4.07 0 001.413-.862c.44-.401.765-.842.976-1.322.212-.48.32-.973.323-1.48a3.945 3.945 0 00-.294-1.501 4.46 4.46 0 00-.88-1.37m1.493-1.541c.623.674 1.079 1.39 1.365 2.146.287.757.412 1.51.376 2.26a5.477 5.477 0 01-.582 2.191c-.352.71-.855 1.365-1.51 1.964-.656.614-1.353 1.071-2.09 1.372-.738.3-1.487.44-2.245.416a5.65 5.65 0 01-2.234-.551c-.73-.345-1.406-.854-2.03-1.53-.61-.658-1.052-1.36-1.328-2.104a5.579 5.579 0 01-.353-2.248c.04-.753.234-1.492.583-2.213.349-.722.851-1.39 1.506-2.004.656-.598 1.354-1.042 2.095-1.332a5.6 5.6 0 012.238-.398 5.617 5.617 0 012.211.539c.723.335 1.388.833 1.998 1.492M118.662 141.676a9.442 9.442 0 00-.723.478c-.235.17-.429.36-.581.568a1.282 1.282 0 00-.255.686c-.018.249.072.53.272.839.177.274.38.46.607.557.228.097.466.13.713.099.247-.031.496-.103.749-.217a7.3 7.3 0 00.708-.367l1.503-.899-1.641-2.552-1.352.808zm5.654 2.142l-3.394 2.026c-.468.28-.948.509-1.44.685a4.25 4.25 0 01-1.442.265c-.471-.001-.92-.113-1.344-.338-.424-.225-.808-.603-1.15-1.135-.438-.682-.61-1.371-.516-2.064.094-.695.473-1.307 1.137-1.839l-5.269-2.611 2.097-1.253 4.826 2.637 1.27-.758-2.565-3.987 1.737-1.038 6.053 9.41zM105.875 142.913a7.463 7.463 0 00-1.63.834c-.483.331-.868.71-1.153 1.136-.285.425-.45.902-.498 1.43-.048.528.058 1.108.32 1.74.256.622.58 1.118.969 1.49.39.37.822.627 1.3.769.478.142.993.185 1.544.132a6.787 6.787 0 001.716-.412l1.765-.658-2.89-6.999-1.443.538zm6.954 7.403l-4.283 1.596a7.358 7.358 0 01-2.202.458 5.668 5.668 0 01-2.161-.298 5.32 5.32 0 01-1.894-1.153c-.574-.533-1.041-1.236-1.403-2.111-.365-.885-.504-1.716-.418-2.494.086-.778.321-1.483.705-2.113a6.01 6.01 0 011.466-1.64 6.998 6.998 0 011.875-1.059l4.053-1.51 4.262 10.324zM71.913 149.886c.025-.441.123-.862.29-1.263.167-.4.4-.748.7-1.041.3-.293.667-.52 1.103-.679.435-.159.934-.222 1.496-.19.892.052 1.61.298 2.154.74.543.442.879 1.113 1.007 2.016l-1.905.333c-.042-.372-.176-.675-.401-.908a1.254 1.254 0 00-.865-.381c-.574-.033-.974.135-1.204.507-.23.371-.364.892-.403 1.563l-.441 7.475-2.006-.115.475-8.057zM66.312 151.466c.143-.612.183-1.2.117-1.76a4.132 4.132 0 00-.474-1.527A3.806 3.806 0 0064.942 147a3.913 3.913 0 00-1.51-.702 3.937 3.937 0 00-1.67-.059c-.528.1-1.006.297-1.435.592a4.075 4.075 0 00-1.103 1.149 5.112 5.112 0 00-.676 1.625 4.669 4.669 0 00-.095 1.663 4.11 4.11 0 00.486 1.487c.253.452.594.84 1.024 1.164.428.324.935.557 1.52.697a4 4 0 001.66.066c.521-.096.996-.289 1.422-.579.429-.289.793-.659 1.094-1.108.302-.45.52-.96.653-1.529m2.135.375c-.215.914-.558 1.709-1.03 2.383a5.693 5.693 0 01-1.683 1.615c-.65.4-1.372.656-2.167.766-.795.11-1.628.06-2.5-.148-.883-.201-1.66-.526-2.33-.976a5.479 5.479 0 01-1.615-1.655 5.731 5.731 0 01-.798-2.2c-.124-.813-.079-1.676.136-2.59.209-.891.548-1.667 1.017-2.326a5.707 5.707 0 011.684-1.588 5.805 5.805 0 012.187-.779c.802-.12 1.646-.078 2.53.121.872.21 1.64.544 2.3 1.002a5.673 5.673 0 011.598 1.66 5.75 5.75 0 01.794 2.175c.127.8.085 1.648-.123 2.54M51.022 153.22l-1.898-.758 4.293-10.596 1.9.759zM43.94 149.607l-2.298-1.395-.503-10.407-.028-.018-4.215 7.543-1.734-1.052 5.674-10.153 2.202 1.337.463 10.71.027.017 4.351-7.787 1.733 1.052zM24.154 125.55c.513-.491 1.06-.845 1.64-1.063a4.265 4.265 0 011.739-.282c.579.032 1.144.182 1.697.452.553.27 1.062.652 1.527 1.144a5.334 5.334 0 011.057 1.595c.24.57.363 1.148.368 1.735a4.212 4.212 0 01-.367 1.735c-.25.57-.63 1.1-1.143 1.592l-5.39 5.16-1.44-1.527 5.34-5.114c.209-.2.397-.441.565-.725.167-.284.277-.592.329-.926a2.381 2.381 0 00-.086-1.049c-.108-.365-.334-.73-.677-1.093-.343-.364-.693-.61-1.05-.736a2.325 2.325 0 00-1.035-.14c-.334.036-.645.13-.935.284a3.37 3.37 0 00-.747.53l-5.34 5.116-1.442-1.527 5.39-5.16zM14.035 120.01c-.14.356-.17.726-.09 1.11a3.044 3.044 0 00.908 1.608c.17.155.352.274.551.356.199.083.407.117.624.1a1.33 1.33 0 00.65-.24c.325-.22.497-.499.517-.84.02-.34-.018-.72-.116-1.139-.097-.419-.22-.866-.368-1.342a5.422 5.422 0 01-.248-1.425 3.294 3.294 0 01.262-1.393c.19-.456.57-.875 1.137-1.258.513-.344 1.024-.551 1.532-.619a3.291 3.291 0 011.463.125c.467.152.904.397 1.314.737.409.34.771.744 1.085 1.213.398.596.682 1.236.853 1.92.17.685.153 1.382-.05 2.095l-2.1-.45c.176-.42.238-.859.187-1.315a2.78 2.78 0 00-.935-1.796 2.215 2.215 0 00-.605-.379 1.522 1.522 0 00-.675-.115 1.325 1.325 0 00-.672.237c-.35.236-.545.53-.584.883-.038.353-.01.74.083 1.163.093.422.213.871.362 1.347.148.476.232.95.254 1.42.02.47-.062.932-.248 1.384-.187.454-.564.87-1.131 1.252-.495.333-.99.52-1.485.558a3.33 3.33 0 01-1.432-.195 4.168 4.168 0 01-1.288-.772c-.4-.346-.75-.74-1.045-1.183a5.722 5.722 0 01-.752-1.623 4.115 4.115 0 01-.1-1.79l2.142.366zM10.59 105.78a5.016 5.016 0 001.55-.81c.44-.346.787-.744 1.04-1.195.256-.452.411-.943.466-1.473a3.92 3.92 0 00-.198-1.65 4 4 0 00-.827-1.454 3.756 3.756 0 00-1.254-.916 4.073 4.073 0 00-1.55-.346 5.023 5.023 0 00-1.73.266c-.551.18-1.036.441-1.456.779a4.035 4.035 0 00-1.002 1.183c-.25.45-.398.941-.447 1.474a4.06 4.06 0 00.21 1.656c.188.572.46 1.054.815 1.449.355.395.767.7 1.236.913.47.215.973.334 1.512.358a4.548 4.548 0 001.635-.234m.803 2.013c-.884.29-1.736.408-2.556.355a5.722 5.722 0 01-2.248-.599 5.571 5.571 0 01-1.785-1.449c-.511-.62-.906-1.356-1.187-2.206-.295-.858-.428-1.688-.4-2.49.03-.803.214-1.548.552-2.234.34-.686.82-1.292 1.442-1.817.623-.527 1.376-.935 2.26-1.225.864-.284 1.699-.396 2.502-.338a5.722 5.722 0 012.227.614 5.874 5.874 0 011.806 1.46c.523.622.931 1.362 1.226 2.22.281.85.401 1.677.36 2.477a5.577 5.577 0 01-.565 2.22 5.632 5.632 0 01-1.42 1.802c-.611.523-1.35.926-2.214 1.21M1.319 92.204l-.29-2.65 7.782-6.356-.004-.032-8.378.912-.219-2 11.277-1.227.279 2.54-8.041 6.496.003.032 8.65-.94.218 2zM10.346 68.004c.114-.63.15-1.236.107-1.821a4.252 4.252 0 00-.416-1.583 3.248 3.248 0 00-1.023-1.196c-.45-.328-1.026-.553-1.73-.677-.695-.123-1.31-.122-1.848.002a3.18 3.18 0 00-1.373.674 3.75 3.75 0 00-.928 1.222 6.336 6.336 0 00-.532 1.663l-.336 1.838 7.804 1.38.275-1.502zM.045 69.812l.815-4.46a6.891 6.891 0 01.744-2.095 5.36 5.36 0 011.402-1.65c.575-.448 1.252-.768 2.03-.961.78-.193 1.658-.202 2.633-.03.986.175 1.806.51 2.46 1.005a5.495 5.495 0 011.528 1.739c.365.663.6 1.37.703 2.12.104.75.093 1.466-.032 2.148l-.772 4.22L.045 69.812zM3.487 55.17l.63-1.808 10.724 3.353-.63 1.807zM10.945 43.768c-.367.064-.69.232-.97.503a3.104 3.104 0 00-.667.962c-.099.22-.17.445-.214.674a1.99 1.99 0 00-.02.667c.031.217.108.416.23.6.123.18.3.328.528.44.345.17.663.174.957.013.294-.162.59-.394.89-.699.3-.304.61-.645.931-1.025.323-.379.676-.7 1.062-.962.385-.262.816-.43 1.292-.5.475-.072 1.013.04 1.616.334.545.268.974.607 1.285 1.017.313.408.523.856.63 1.343.11.486.125.998.048 1.533a5.936 5.936 0 01-.465 1.584 6.176 6.176 0 01-1.17 1.751 3.847 3.847 0 01-1.766 1.055l-.68-2.073a2.45 2.45 0 001.188-.524c.355-.284.626-.636.814-1.057.1-.22.168-.453.21-.702.042-.247.045-.49.011-.727a1.616 1.616 0 00-.242-.649 1.312 1.312 0 00-.536-.465c-.373-.182-.716-.198-1.028-.046a3.507 3.507 0 00-.926.68 16.56 16.56 0 00-.94 1.022c-.32.38-.673.7-1.053.966-.38.263-.807.434-1.277.508-.471.073-1.007-.037-1.61-.333-.525-.257-.929-.593-1.21-1.006a3.493 3.493 0 01-.557-1.353c-.09-.489-.09-1-.005-1.53.088-.532.24-1.043.46-1.533.251-.56.575-1.063.973-1.508a3.976 3.976 0 011.438-1.024l.773 2.064zM18.745 32.328c-.624.093-1.114.265-1.469.513a3.413 3.413 0 00-.88.888 4.213 4.213 0 00-.67 1.572 3.956 3.956 0 00.017 1.583c.112.519.323 1.006.63 1.462.307.458.7.855 1.18 1.196.518.364 1.048.62 1.593.764a3.971 3.971 0 001.592.109 3.741 3.741 0 001.466-.536c.46-.284.862-.682 1.205-1.193.27-.398.438-.852.506-1.358.067-.507.006-1.067-.182-1.68l1.981-.737c.298.868.367 1.719.208 2.551a6.258 6.258 0 01-.972 2.334c-.514.76-1.104 1.373-1.773 1.84a5.596 5.596 0 01-2.127.92 5.572 5.572 0 01-2.31-.04c-.792-.176-1.564-.53-2.316-1.061-.77-.545-1.383-1.169-1.837-1.874a5.928 5.928 0 01-.884-2.217 5.876 5.876 0 01.082-2.367 7.065 7.065 0 011.052-2.35 5.776 5.776 0 011.6-1.612c.615-.407 1.365-.66 2.25-.762l.058 2.055zM25.432 28.578c.431.44.897.78 1.396 1.02.499.24 1.005.373 1.518.404a3.752 3.752 0 001.516-.225c.497-.18.96-.477 1.387-.89.427-.415.741-.867.94-1.36a3.68 3.68 0 00.274-1.506 3.99 3.99 0 00-.364-1.52 4.94 4.94 0 00-.988-1.416 4.515 4.515 0 00-1.327-.95 4.027 4.027 0 00-1.49-.375 3.69 3.69 0 00-1.51.243c-.498.187-.96.488-1.388.901a3.971 3.971 0 00-.94 1.348 3.66 3.66 0 00-.279 1.49c.012.506.125 1.004.337 1.49.211.488.517.936.918 1.346m-1.448 1.581c-.643-.657-1.119-1.359-1.426-2.107a5.571 5.571 0 01-.44-2.248c.013-.75.187-1.485.519-2.205s.816-1.389 1.455-2.005c.637-.632 1.32-1.109 2.05-1.43a5.426 5.426 0 012.233-.48 5.643 5.643 0 012.248.489c.74.323 1.43.813 2.072 1.47.629.641 1.091 1.33 1.387 2.066.297.737.436 1.482.419 2.237a5.746 5.746 0 01-.52 2.229c-.33.73-.812 1.413-1.45 2.044-.638.616-1.323 1.08-2.055 1.39a5.61 5.61 0 01-2.227.462 5.633 5.633 0 01-2.226-.476c-.731-.316-1.41-.794-2.04-1.436M38.364 16.93c.242-.156.475-.32.702-.498.226-.177.412-.371.558-.583a1.3 1.3 0 00.232-.692c.01-.25-.088-.528-.294-.832-.183-.27-.39-.45-.617-.541a1.334 1.334 0 00-.707-.08 2.587 2.587 0 00-.734.238c-.246.121-.475.25-.69.388l-1.46.938 1.697 2.505 1.313-.843zm-5.655-1.987l3.298-2.117a8.148 8.148 0 011.403-.725c.481-.19.954-.29 1.42-.303.466-.012.913.088 1.34.3.426.214.816.581 1.17 1.103.454.67.644 1.353.57 2.05-.073.696-.43 1.318-1.07 1.868l5.287 2.465-2.037 1.309-4.85-2.502-1.234.791 2.653 3.916-1.69 1.084-6.26-9.239zM50.674 14.928a7.276 7.276 0 001.592-.946c.469-.372.838-.79 1.108-1.257.27-.467.42-.985.452-1.556.032-.57-.091-1.192-.368-1.865-.273-.662-.609-1.188-1.005-1.577a3.124 3.124 0 00-1.313-.79 3.675 3.675 0 00-1.533-.097 6.312 6.312 0 00-1.689.493l-1.73.76 3.071 7.455 1.415-.62zm-7.113-7.774l4.2-1.843a6.802 6.802 0 012.169-.557 5.218 5.218 0 012.15.257c.69.236 1.327.632 1.911 1.189.586.556 1.07 1.3 1.454 2.232.387.942.55 1.834.488 2.675a5.833 5.833 0 01-.635 2.296 6.363 6.363 0 01-1.405 1.808 6.889 6.889 0 01-1.827 1.196l-3.974 1.744-4.531-10.997z"/></g></g><circle fill="#000" fill-rule="nonzero" cx="68.967" cy="5.692" r="4"/><circle fill="#000" fill-rule="nonzero" cx="90.967" cy="152.692" r="4"/></g></svg>