<svg width="72" height="72" xmlns="http://www.w3.org/2000/svg"><defs><filter id="a"><feColorMatrix in="SourceGraphic" values="0 0 0 0 0.592157 0 0 0 0 0.592157 0 0 0 0 0.592157 0 0 0 1.000000 0"/></filter></defs><g transform="translate(-1511 -1011)" filter="url(#a)" fill="none" fill-rule="evenodd"><path stroke="#000" d="M1546.5 1026v42M1532 1032l30 30M1526 1046.5h42M1532 1062l30-30"/><path d="M1547 1011c-19.883 0-36 16.117-36 36s16.117 36 36 36 36-16.117 36-36-16.117-36-36-36m0 .62c19.508 0 35.38 15.872 35.38 35.38 0 19.508-15.872 35.38-35.38 35.38-19.508 0-35.38-15.872-35.38-35.38 0-19.508 15.872-35.38 35.38-35.38" fill="#000"/></g></svg>