<svg width="72" height="72" xmlns="http://www.w3.org/2000/svg"><defs><filter id="a"><feColorMatrix in="SourceGraphic" values="0 0 0 0 0.592157 0 0 0 0 0.592157 0 0 0 0 0.592157 0 0 0 1.000000 0"/></filter><filter id="b"><feColorMatrix in="SourceGraphic" values="0 0 0 0 0.592157 0 0 0 0 0.592157 0 0 0 0 0.592157 0 0 0 1.000000 0"/></filter></defs><g fill="none" fill-rule="evenodd"><g filter="url(#a)"><path d="M36 0C16.117 0 0 16.117 0 36s16.117 36 36 36 36-16.117 36-36S55.883 0 36 0m0 .62C55.508.62 71.38 16.493 71.38 36c0 19.508-15.872 35.38-35.38 35.38C16.492 71.38.62 55.507.62 36 .62 16.492 16.493.62 36 .62" fill="#000"/></g><g filter="url(#b)"><path d="M46.455 17.5c1.118 0 2.132.439 2.866 1.15a3.83 3.83 0 011.179 2.758h0v30.784a3.83 3.83 0 01-1.18 2.758 4.104 4.104 0 01-2.865 1.15h0-20.91a4.104 4.104 0 01-2.865-1.15 3.83 3.83 0 01-1.18-2.758h0V21.408a3.83 3.83 0 011.18-2.758 4.104 4.104 0 012.865-1.15h20.91z" stroke="#000"/><path d="M28.455 44.6h16.29c.804 0 1.455.61 1.455 1.364v3.272c0 .754-.65 1.364-1.455 1.364h-16.29c-.803 0-1.455-.61-1.455-1.364v-3.272c0-.753.652-1.364 1.455-1.364zM28.455 38.6h16.29c.804 0 1.455.61 1.455 1.364v3.272c0 .754-.65 1.364-1.455 1.364h-16.29c-.803 0-1.455-.61-1.455-1.364v-3.272c0-.753.652-1.364 1.455-1.364z" stroke="#000"/><path d="M45.6 20.6a1.8 1.8 0 110 3.6 1.8 1.8 0 010-3.6" fill="#000"/></g></g></svg>