<svg width="118" height="118" fill="none" xmlns="http://www.w3.org/2000/svg"><path clip-rule="evenodd" d="M75 59c0 13.255-7.163 24-16 24S43 72.255 43 59s7.163-24 16-24 16 10.745 16 24z" stroke="#000"/><path d="M29 49h60M29.5 69h60" stroke="#000"/><path clip-rule="evenodd" d="M92.5 59c0 13.255-14.998 24-33.5 24-18.502 0-33.5-10.745-33.5-24S40.498 35 59 35c18.502 0 33.5 10.745 33.5 24z" stroke="#000"/><path d="M59.5 35v48M59 1C26.967 1 1 26.967 1 59s25.967 58 58 58c32.032 0 58-25.967 58-58S91.032 1 59 1" stroke="#000"/></svg>