<svg width="75" height="75" fill="none" xmlns="http://www.w3.org/2000/svg"><path fill-rule="evenodd" clip-rule="evenodd" d="M.5 37.5c0-20.435 16.565-37 37-37 20.434 0 37 16.565 37 37s-16.566 37-37 37c-20.435 0-37-16.565-37-37zm37-36c-19.883 0-36 16.117-36 36s16.117 36 36 36c19.882 0 36-16.117 36-36s-16.118-36-36-36zM26.349 25.281c-1.324 0-2.38 1.047-2.38 2.313v20.812c0 1.266 1.056 2.313 2.38 2.313h21.303c1.324 0 2.378-1.047 2.378-2.313V27.594c0-1.266-1.054-2.313-2.378-2.313H26.349zm-3.38 2.313c0-1.84 1.525-3.313 3.38-3.313h2.378V20h1v4.281h4.182V20h1v4.281h4.182V20h1v4.281h4.181V20h1v4.281h2.38c1.854 0 3.378 1.473 3.378 3.313v2.312H56v1h-4.97v4.063H56v1h-4.97v4.062H56v1h-4.97v4.063H56v1h-4.97v2.312c0 1.84-1.524 3.313-3.378 3.313h-2.38V56h-1v-4.281h-4.181V56h-1v-4.281h-4.182V56h-1v-4.281h-4.182V56h-1v-4.281H26.35c-1.855 0-3.38-1.473-3.38-3.313v-2.312H18v-1h4.97V41.03H18v-1h4.97V35.97H18v-1h4.97v-4.063H18v-1h4.97v-2.312zm9.061 6.75c0-.647.537-1.188 1.227-1.188h7.485c.691 0 1.228.541 1.228 1.188v7.312c0 .647-.537 1.188-1.228 1.188h-7.484c-.691 0-1.228-.541-1.228-1.188v-7.312zm1.227-2.188c-1.22 0-2.227.967-2.227 2.188v7.312c0 1.221 1.007 2.188 2.227 2.188h7.485c1.221 0 2.228-.967 2.228-2.188v-7.312c0-1.221-1.007-2.188-2.228-2.188h-7.484z" fill="#fff"/></svg>