<svg width="75" height="75" fill="none" xmlns="http://www.w3.org/2000/svg"><path fill-rule="evenodd" clip-rule="evenodd" d="M.5 37.5c0-20.435 16.565-37 37-37 20.434 0 37 16.565 37 37s-16.566 37-37 37c-20.435 0-37-16.565-37-37zm37-36c-19.883 0-36 16.117-36 36s16.117 36 36 36c19.882 0 36-16.117 36-36s-16.118-36-36-36zm-8.724 20a3.276 3.276 0 00-3.276 3.276v26.368a3.276 3.276 0 003.276 3.276h17.369a3.276 3.276 0 003.276-3.276V24.776a3.276 3.276 0 00-3.276-3.276h-17.37zM24.5 24.776a4.276 4.276 0 014.276-4.276h17.369a4.276 4.276 0 014.276 4.276v26.368a4.276 4.276 0 01-4.276 4.276h-17.37a4.276 4.276 0 01-4.275-4.276V24.776zM30 46.487a.76.76 0 01.759-.759h14.096c.42 0 .759.34.759.76v3.02c0 .42-.34.758-.759.758H30.76a.759.759 0 01-.759-.758v-3.02zm-1-2.517c0 .493.203.94.53 1.259-.327.319-.53.765-.53 1.258v3.02c0 .973.788 1.76 1.759 1.76h14.096c.972 0 1.759-.788 1.759-1.76v-3.02c0-.493-.203-.939-.53-1.258.327-.32.53-.766.53-1.26v-3.02c0-.97-.787-1.759-1.759-1.759H30.76A1.76 1.76 0 0029 40.95v3.02zm1.759-3.78a.76.76 0 00-.759.76v3.02c0 .419.34.758.759.758h14.096c.42 0 .759-.339.759-.758v-3.02a.759.759 0 00-.759-.76H30.76zm15.356-13.652a1.385 1.385 0 10-2.77 0 1.385 1.385 0 002.77 0z" fill="#fff"/></svg>