<svg width="75" height="75" fill="none" xmlns="http://www.w3.org/2000/svg"><path fill-rule="evenodd" clip-rule="evenodd" d="M37.5.5C17.065.5.5 17.065.5 37.5s16.565 37 37 37c20.434 0 37-16.565 37-37S57.934.5 37.5.5zm-36 37c0-19.883 16.117-36 36-36 19.882 0 36 16.117 36 36s-16.118 36-36 36c-19.883 0-36-16.117-36-36zm44.987-13a2.647 2.647 0 100 5.293 2.647 2.647 0 000-5.293zM21 27.647h21.874a3.647 3.647 0 007.226 0h3.624v-1H50.1a3.647 3.647 0 00-7.226 0H21v1zm19.66 9.069a3.647 3.647 0 00-7.225 0H21v1h12.435a3.647 3.647 0 007.225 0h13.064v-1H40.66zm13.064 11.069h-4.883a3.647 3.647 0 01-7.225 0H21v-1h20.616a3.647 3.647 0 017.225 0h4.883v1zm-19.323-10.57a2.647 2.647 0 115.293 0 2.647 2.647 0 01-5.293 0zm10.827 7.423a2.647 2.647 0 100 5.293 2.647 2.647 0 000-5.293z" fill="#fff"/></svg>