<svg width="212" height="212" fill="none" xmlns="http://www.w3.org/2000/svg"><path fill-rule="evenodd" clip-rule="evenodd" d="M.933 106C.933 47.734 48.167.5 106.433.5s105.5 47.234 105.5 105.5-47.234 105.5-105.5 105.5S.933 164.266.933 106zm105.5-104.5C48.719 1.5 1.933 48.286 1.933 106s46.786 104.5 104.5 104.5c57.713 0 104.5-46.786 104.5-104.5S164.146 1.5 106.433 1.5zM22.808 106c0-46.185 37.44-83.625 83.625-83.625 46.184 0 83.625 37.44 83.625 83.625s-37.441 83.625-83.625 83.625c-46.185 0-83.625-37.44-83.625-83.625zm83.625-82.625C60.8 23.375 23.808 60.367 23.808 106c0 45.632 36.992 82.625 82.625 82.625 45.632 0 82.625-36.993 82.625-82.625 0-45.633-36.993-82.625-82.625-82.625zm17.915-6.378c-1.815-.368-1.675-1.41-1.588-1.962l-1.16-.228c-.079.385-.192 1.025.14 1.7.471.928 1.674 1.279 2.276 1.402 2.024.411 3.341-.43 3.621-1.84.069-.333.165-1.113-.472-1.744-.374-.377-.574-.473-2.148-1.236l-.233-.113c-.916-.42-1.326-.763-1.186-1.464.165-.788.916-1.147 2.015-.928.776.157 1.57.552 1.422 1.55l1.142.228.006-.04c.044-.344.112-.867-.215-1.414-.497-.824-1.544-1.13-2.067-1.236-1.492-.306-3.158.088-3.481 1.709-.105.526-.052 1.157.506 1.726.335.345.823.577 1.874 1.076l.132.063.021.01c1.044.494 1.714.81 1.532 1.699-.078.394-.497 1.375-2.137 1.042zm9.151-5.344l2.582.814c.942.298 1.561.552 1.901 1.288.262.517.279 1.104.096 1.683-.183.587-.532 1.034-1.081 1.314-.533.28-1.152.368-2.53-.07l-1.248-.394-1.081 3.434-1.065-.341 2.426-7.728zm0 3.732l1.273.403c.707.22 1.797.508 2.198-.753.38-1.196-.597-1.518-1.159-1.703l-.018-.006-1.492-.473-.802 2.532zM145.38 16l-1.099-.474-6.307 6.107 1.055.456 1.631-1.595 3.446 1.481-.026 2.287 1.117.482.183-8.744zm-1.222 5.003l-2.808-1.21 3-3.031-.192 4.24zm11.027 2.497l.007-.02c.108-.293.484-1.313-.836-2.066-1.692-.963-2.975.605-3.638 1.77-.75 1.323-1.177 2.98.419 3.89.427.246.898.369 1.378.228.398-.127.623-.386.748-.53l.011-.013 1.064.605c-.924 1.305-2.529 1.156-3.733.464-2.469-1.402-1.71-3.864-.942-5.23.837-1.482 2.66-3.374 5.155-1.946.995.56 2.164 1.761 1.387 3.435l-1.02-.587zm9.979 4.109l-4.109-2.962-4.701 6.58 4.187 3.015.575-.806-3.28-2.357 1.562-2.19 3.053 2.198.55-.762-3.054-2.2 1.466-2.05 3.201 2.305.55-.771zm4.144 3.242l1.456 1.35-2.835 6.457 6.22-3.321 1.352 1.253-5.469 5.958-.803-.745 4.92-5.362-6.874 3.557-.776-.718 3.018-7.062-4.894 5.327-.794-.736 5.479-5.958zm13.058 13.51l-3.271-3.872-6.15 5.24 3.333 3.942.75-.64-2.608-3.092 2.041-1.744 2.425 2.874.715-.613-2.425-2.874 1.919-1.63 2.547 3.023.724-.613zm-1.16 7.974c-.454.333-1.274.972-.227 2.515.942 1.393 1.919.98 2.251.753.749-.507.489-1.215.089-2.307l-.002-.006c-.445-1.192-.637-1.717-.637-2.226 0-.797.402-1.288.838-1.594 1.361-.929 2.826-.044 3.681 1.218.305.447.837 1.393.619 2.33-.15.62-.555.943-.819 1.154l-.036.03-.654-.965c.803-.613.506-1.445.061-2.102-.628-.93-1.422-1.2-2.085-.745-.593.403-.532.928-.174 1.884l.131.364v.002h.001v.003h.001v.002h.001v.002c.549 1.532.625 1.743.625 2.264.017.902-.602 1.384-.881 1.577-1.187.806-2.704.49-3.873-1.227-.349-.508-.969-1.603-.655-2.593.235-.717.757-1.085 1.08-1.313l.002-.001.663.98zm7.52 7.772l3.061-1.621-.523-.99-7.144 3.776.523.99 3.228-1.708 1.788 3.408-3.228 1.709.524.99 7.144-3.777-.523-.99-3.062 1.621-1.788-3.408zm9.438 43.87c-.558.009-1.596.062-1.631 1.928-.026 1.682 1.012 1.919 1.413 1.919.907.017 1.099-.71 1.396-1.84l.028-.109c.303-1.151.443-1.682.722-2.082.462-.657 1.064-.823 1.605-.814 1.64.026 2.329 1.603 2.312 3.128-.009.543-.114 1.629-.829 2.269-.485.427-1.02.454-1.362.472l-.025.001.017-1.165c1.004-.035 1.248-.885 1.257-1.683.017-1.121-.472-1.805-1.283-1.822-.715-.009-.968.456-1.221 1.437l-.038.139c-.488 1.799-.546 2.01-.852 2.463-.506.745-1.291.789-1.622.78-1.431-.026-2.495-1.165-2.46-3.242.008-.622.131-1.875.959-2.497.602-.447 1.248-.447 1.64-.447l-.026 1.165zm5.173 12.004l.253-1.971-8.025-1.025-.14 1.077 7.162.92-7.485 1.612-.13 1.061 6.873 3.566-7.205-.929-.14 1.095 8.008 1.034.236-1.84-6.298-3.18 6.891-1.42zm-2.216 12.88l-3.349-.885-.977 3.724 3.349.885-.288 1.086-7.807-2.068.288-1.086 3.524.929.977-3.724-3.524-.929.288-1.086 7.807 2.068-.288 1.086zm-28.429 38.158c1.256-1.376 2.068-.719 2.495-.351l.794-.867c-.288-.263-.777-.701-1.518-.762-1.038-.079-1.954.771-2.373 1.226-1.404 1.534-1.369 3.093-.314 4.066.245.228.855.718 1.727.499.529-.126.711-.245 2.209-1.222l.182-.118c.846-.561 1.343-.745 1.866-.254.585.543.506 1.384-.253 2.208-.54.587-1.282 1.06-2.058.42l-.785.859.02.016c.262.211.677.545 1.323.553.96.009 1.753-.736 2.12-1.13 1.029-1.121 1.553-2.751.349-3.873-.393-.368-.96-.648-1.736-.464-.474.112-.939.421-1.967 1.104l-.04.026c-.968.64-1.596 1.052-2.259.438-.296-.271-.916-1.139.218-2.374zm-.192 10.619l-2.032 1.796c-.742.649-1.283 1.052-2.085.973-.576-.044-1.082-.333-1.474-.789-.402-.464-.602-.99-.559-1.612.035-.604.28-1.174 1.379-2.138l.985-.867-2.364-2.707.838-.736 5.312 6.08zm-3.184-1.936l-1.003.885c-.549.491-1.369 1.279-.497 2.278.834.951 1.616.26 2.053-.127l.006-.004 1.177-1.034-1.736-1.998zm-6.655 9.901l.968-.701-1.945-8.569-.934.674.515 2.226-3.045 2.19-1.936-1.2-.986.71 7.363 4.67zm-3.638-3.636l2.477-1.788 1.038 4.145-3.515-2.357zm-7.842 8.201l.013.017c.194.245.866 1.094 2.194.351 1.692-.955 1.02-2.865.366-4.039-.741-1.332-1.928-2.559-3.533-1.648-.427.246-.776.579-.907 1.06-.104.416.006.746.068.932l.002.006-1.073.605c-.628-1.472.322-2.769 1.526-3.453 2.478-1.393 4.179.526 4.946 1.902.829 1.489 1.501 4.03-1.003 5.441-.994.561-2.617.946-3.646-.587l1.047-.587zm-8.645 6.457l4.658-2.006-3.175-7.457-4.737 2.042.384.911 3.707-1.594 1.056 2.479-3.455 1.49.367.867 3.454-1.489.995 2.321-3.629 1.56.375.876zm-4.92 1.884l-1.902.552-4.039-5.783-.401 7.071-1.771.517-2.242-7.789 1.056-.307 2.015 7.01.532-7.755 1.021-.298 4.449 6.256-2.007-6.965 1.038-.298 2.251 7.789zm-18.293 4.206l4.999-.798-1.265-8.008-5.086.806.157.973 3.987-.631.418 2.663-3.707.588.148.928 3.708-.587.392 2.497-3.899.622.148.947zm-6.15-5.143c-.052-.561-.174-1.604-2.023-1.508-1.675.088-1.832 1.14-1.815 1.543.044.911.777 1.051 1.928 1.27 1.247.237 1.797.351 2.224.605.681.411.89 1.007.916 1.55.088 1.648-1.43 2.445-2.948 2.524-.532.026-1.623-.009-2.312-.684-.467-.469-.522-1.008-.557-1.35l-.001-.008 1.16-.061c.105 1.008.968 1.192 1.762 1.148 1.117-.062 1.762-.596 1.719-1.402-.035-.719-.515-.938-1.509-1.122l-.254-.051c-1.712-.347-1.931-.391-2.39-.667-.776-.456-.872-1.235-.889-1.577-.07-1.437.985-2.585 3.053-2.69.619-.035 1.867.009 2.547.788.489.57.532 1.218.55 1.613l-1.161.079zm-10.52 2.427l-.209 3.469 1.108.07.479-8.087-1.116-.07-.218 3.654-3.821-.228.218-3.654-1.117-.07-.48 8.087 1.117.07.21-3.469 3.829.228zM60.433 185.4c.27-.49.758-1.419-.83-2.383-1.43-.876-2.154-.096-2.363.245-.471.78.052 1.315.872 2.138l.042.043c.86.873 1.252 1.27 1.458 1.718.332.728.166 1.341-.113 1.797-.855 1.41-2.556 1.209-3.856.411-.453-.28-1.334-.92-1.526-1.866-.12-.647.131-1.124.289-1.423l.007-.014.995.605c-.48.893.13 1.524.811 1.945.95.587 1.788.508 2.207-.184.375-.613.096-1.069-.62-1.787l-.176-.182c-1.224-1.261-1.378-1.418-1.603-1.913-.384-.814-.026-1.515.148-1.796.742-1.226 2.26-1.568 4.03-.49.524.324 1.545 1.06 1.658 2.094.078.744-.244 1.305-.445 1.647l-.986-.605zm-12.937-1.787l1.544 1.244 5.042-6.335-.846-.683-4.51 5.669 2.512-7.264-.828-.666-6.604 4.039 4.536-5.703-.855-.684-5.033 6.335 1.44 1.156 5.975-3.758-2.373 6.65zm-9.805-8.595l2.495-2.419-2.66-2.769-2.496 2.419-.776-.806 5.8-5.625.777.806-2.617 2.541 2.66 2.768 2.618-2.541.776.806-5.8 5.626-.777-.806zm-17.804-44.151c.514 1.787-.463 2.146-.995 2.321l.323 1.122c.375-.114.994-.307 1.44-.911.601-.841.357-2.077.182-2.673-.567-1.997-1.919-2.777-3.297-2.374-.323.096-1.064.368-1.326 1.227-.165.514-.158.738-.105 2.45l.01.301c.052 1.016-.053 1.533-.742 1.735-.777.227-1.44-.281-1.754-1.359-.226-.762-.244-1.647.707-1.98l-.323-1.121-.029.01c-.316.115-.819.296-1.157.848-.497.824-.28 1.893-.131 2.41.427 1.472 1.544 2.769 3.123 2.313.514-.149 1.047-.491 1.29-1.253.15-.473.132-1.043.08-2.313l-.002-.028c-.043-1.158-.07-1.893.795-2.145.384-.114 1.448-.201 1.91 1.42zm-8.942-5.678l-.47-2.673c-.175-.972-.236-1.647.252-2.295.34-.473.846-.754 1.44-.859.601-.105 1.16 0 1.666.359.488.342.854.85 1.107 2.287l.227 1.297 3.533-.622.192 1.104-7.947 1.402zm3.298-1.726l-.227-1.315c-.131-.727-.384-1.84-1.675-1.603-1.247.219-1.064 1.262-.96 1.831l.27 1.551 2.592-.464zm-4.955-10.874l.087 1.201 8.305 2.786-.088-1.157-2.163-.709-.27-3.75 2.023-1.034-.096-1.218-7.798 3.881zm4.972-1.226l.236 3.057-4.065-1.27 3.83-1.787zm-2.913-10.988l-.02.003c-.306.037-1.386.17-1.437 1.697-.061 1.954 1.91 2.366 3.253 2.41 1.518.052 3.176-.333 3.237-2.182.017-.491-.087-.973-.436-1.332-.306-.298-.646-.377-.838-.421l.044-1.235c1.579.22 2.19 1.717 2.146 3.102-.096 2.847-2.617 3.312-4.179 3.259-1.7-.061-4.213-.806-4.117-3.689.035-1.147.55-2.742 2.39-2.83l-.043 1.218zm-1.03-10.777l-.698 5.038 8 1.122.715-5.126-.977-.14-.558 4.013-2.661-.368.523-3.742-.933-.131-.523 3.741-2.495-.35.55-3.925-.943-.132zm.942-5.196l.515-1.918 7.014-.474-5.819-4.004.48-1.787 7.798 2.103-.287 1.06-7.014-1.893 6.324 4.46-.279 1.034-7.633.587 6.97 1.884-.279 1.051-7.79-2.103zm5.88-17.9l-1.91 4.714 7.475 3.058 1.946-4.793-.908-.377-1.526 3.759-2.486-1.016 1.413-3.496-.872-.36-1.414 3.496-2.329-.955 1.492-3.67-.881-.36zm7.572-2.637c.506.245 1.448.683 2.329-.964.794-1.481-.018-2.164-.375-2.357-.794-.43-1.3.123-2.076.99-.847.946-1.23 1.367-1.667 1.595-.706.368-1.326.245-1.797-.018-1.448-.78-1.343-2.497-.619-3.846.253-.474.846-1.394 1.77-1.63.635-.155 1.126.07 1.433.212l.016.007-.55 1.025c-.916-.43-1.509.22-1.893.92-.532.99-.4 1.822.306 2.208.628.342 1.073.044 1.744-.718l.177-.194c1.18-1.294 1.329-1.457 1.803-1.708.786-.43 1.5-.105 1.797.053 1.265.683 1.684 2.19.707 4.013-.288.543-.977 1.603-1.997 1.778-.742.123-1.318-.175-1.658-.359l.55-1.007zm3.393-10.296L25.26 51.58l-.637.92 6.63 4.627.637-.92-2.992-2.086 2.19-3.163 2.991 2.086.637-.92-6.63-4.627-.636.92 2.843 1.99-2.19 3.162zM62.43 24.865c.28.491.82 1.385 2.46.526 1.492-.78 1.195-1.805 1.012-2.164-.419-.806-1.143-.63-2.277-.35l-.133.032c-1.137.276-1.665.403-2.144.344-.794-.096-1.23-.543-1.474-1.025-.759-1.463.288-2.821 1.64-3.53.48-.246 1.483-.675 2.381-.343.606.223.886.688 1.061.98l.012.02-1.029.543c-.515-.868-1.37-.675-2.076-.307-.995.517-1.352 1.28-.986 1.998.332.64.864.64 1.84.394l.033-.008c1.898-.448 2.117-.5 2.672-.448.89.088 1.3.762 1.457 1.06.663 1.28.174 2.76-1.666 3.724-.541.29-1.701.78-2.643.342-.68-.316-.986-.885-1.17-1.235l1.03-.552zm8.2-10.198l-1.858.683 2.791 7.597 1.021-.377-2.495-6.808 4.885 5.923.995-.368-.026-7.763 2.512 6.852 1.03-.377-2.792-7.605-1.727.64.104 7.079-4.44-5.476zm12.413-3.978l.768 3.39 3.742-.85-.768-3.39 1.09-.245 1.78 7.903-1.09.245-.803-3.566-3.742.85.803 3.566-1.09.245-1.78-7.903 1.09-.245zm21.804-3.46l.757 3.727-3.171-2.1-.552.833 3.171 2.1-3.728.758.199.98 3.728-.757-2.1 3.172.833.552 2.1-3.171.757 3.728.98-.2-.757-3.728 3.172 2.1.552-.833-3.171-2.1 3.728-.758-.199-.98-3.729.758 2.101-3.173-.834-.552-2.1 3.172-.757-3.727-.98.199zm90.125 71.75l.757 3.727-3.171-2.1-.552.833 3.171 2.1-3.728.758.199.98 3.728-.757-2.1 3.172.833.552 2.1-3.171.757 3.728.98-.2-.757-3.728 3.172 2.1.552-.833-3.171-2.1 3.728-.758-.199-.98-3.729.757 2.101-3.172-.834-.552-2.1 3.172-.757-3.727-.98.199zm-7.238 68.169l.757 3.727-3.171-2.101-.553.834 3.172 2.101-3.728.757.199.98 3.728-.757-2.101 3.171.834.553 2.101-3.172.757 3.728.98-.199-.758-3.729 3.173 2.101.552-.833-3.172-2.101 3.728-.757-.199-.98-3.729.757 2.101-3.172-.834-.552-2.1 3.172-.757-3.727-.98.199zM44.234 30.773l.757 3.727-3.172-2.1-.552.833 3.172 2.1-3.728.758.199.98 3.728-.757-2.1 3.171.833.553 2.1-3.172.758 3.728.98-.199-.758-3.729 3.173 2.101.552-.833-3.172-2.1 3.728-.758-.2-.98-3.728.757 2.101-3.172-.834-.552-2.1 3.172-.757-3.728-.98.2zm-20.125 117.25l.757 3.727-3.171-2.101-.553.834 3.172 2.101-3.728.757.199.98 3.728-.757-2.1 3.171.833.553 2.1-3.172.758 3.728.98-.199-.758-3.729 3.173 2.101.552-.833-3.172-2.101 3.728-.757-.2-.98-3.728.757 2.101-3.172-.834-.552-2.1 3.172-.757-3.727-.98.199zm51.625 42l.757 3.727-3.171-2.101-.553.834 3.172 2.101-3.728.757.199.98 3.728-.757-2.1 3.171.833.553 2.1-3.172.758 3.728.98-.199-.758-3.729 3.173 2.101.552-.833-3.172-2.101 3.728-.757-.2-.98-3.728.757 2.101-3.172-.834-.552-2.1 3.172-.757-3.727-.98.199zm48.378-123.456H89.887l-1.685 4.049 15.928 16.629L88 104.086l.002 3.531 16.123 16.772-15.92 16.561 1.683 4.05h34.223l1.683-4.051-15.92-16.56 16.123-16.772.004-3.532-16.132-16.84 15.929-16.629-1.686-4.049zm-32.111 39.124L107 90.031l14.999 15.659v.315l-15 15.602-14.998-15.602v-.314zM120.294 141l-13.295-13.83L93.705 141h26.589zm-26.6-70.433L107 84.457l13.306-13.89H93.694z" fill="#000"/></svg>