<svg width="152" height="152" xmlns="http://www.w3.org/2000/svg"><defs><filter color-interpolation-filters="auto" id="a"><feColorMatrix in="SourceGraphic" values="0 0 0 0 1.000000 0 0 0 0 1.000000 0 0 0 0 1.000000 0 0 0 1.000000 0"/></filter></defs><g transform="translate(-379 -796)" filter="url(#a)" fill="none" fill-rule="evenodd"><path d="M380.433 872.433c0 41.42 33.578 75 75 75 41.42 0 75-33.58 75-75 0-41.422-33.58-75-75-75-41.422 0-75 33.578-75 75z" stroke-opacity=".1" stroke="#000"/><path d="M396.058 872.433c0 32.792 26.583 59.375 59.375 59.375s59.375-26.583 59.375-59.375-26.583-59.375-59.375-59.375-59.375 26.583-59.375 59.375z" stroke="#000" opacity=".1"/><path d="M467.12 807.761c-.064.396-.164 1.134 1.139 1.398 1.178.237 1.474-.463 1.53-.745.13-.636-.356-.865-1.11-1.22-.82-.387-1.185-.559-1.436-.813-.4-.407-.44-.857-.364-1.234.233-1.153 1.425-1.435 2.493-1.22.376.075 1.125.292 1.48.878.245.41.183.797.15 1.035l-.815-.164c.103-.714-.462-.992-1.02-1.104-.784-.158-1.327.1-1.44.665-.101.502.193.74.85 1.045 1.281.618 1.424.68 1.709.966.456.451.385 1.009.337 1.244-.203 1.005-1.14 1.608-2.593 1.315-.431-.087-1.296-.335-1.628-.998-.238-.482-.154-.938-.099-1.213l.817.165zM474.815 808.013l.91.288c.504.159 1.287.364 1.572-.537.272-.863-.446-1.09-.843-1.216l-1.07-.337-.569 1.802zm.001-2.662l1.849.583c.672.213 1.118.396 1.365.92.185.368.197.783.067 1.197a1.53 1.53 0 01-.776.938c-.382.2-.822.262-1.815-.052l-.894-.282-.774 2.452-.764-.241 1.742-5.515zM480.44 811.155l2.01.862.139-3.026-2.148 2.164zm2.1-3.047l.788.337-.13 6.238-.802-.344.02-1.631-2.467-1.057-1.167 1.137-.759-.324 4.517-4.356zM490.353 813.796c.07-.19.375-.938-.593-1.487-1.211-.687-2.13.43-2.604 1.265-.536.947-.845 2.125.304 2.777.306.173.641.263.983.162.292-.092.457-.284.544-.39l.766.433c-.665.93-1.81.823-2.673.333-1.768-1.002-1.225-2.755-.672-3.73.6-1.058 1.907-2.405 3.697-1.39.709.402 1.55 1.257.993 2.45l-.745-.423zM494.562 814.616l2.946 2.113-.397.553-2.296-1.646-1.048 1.463 2.185 1.567-.392.547-2.185-1.567-1.12 1.56 2.348 1.684-.41.572-2.999-2.15zM500.471 819.042l1.041.96-2.028 4.608 4.459-2.367.97.895-3.917 4.25-.577-.533 3.528-3.825-4.922 2.538-.56-.515 2.164-5.038-3.505 3.802-.571-.527zM507.483 825.916l2.346 2.765-.519.44-1.828-2.154-1.373 1.165 1.74 2.05-.512.435-1.741-2.05-1.464 1.242 1.869 2.204-.537.455-2.387-2.813zM508.997 834.369c-.322.238-.91.696-.164 1.795.676.993 1.377.7 1.615.538.537-.365.35-.867.06-1.648-.316-.85-.457-1.228-.458-1.585-.001-.57.285-.92.601-1.136.974-.661 2.024-.03 2.635.87.217.318.6.996.444 1.664-.11.462-.426.696-.615.844l-.469-.688c.574-.438.364-1.031.044-1.5-.45-.663-1.019-.858-1.494-.533-.424.288-.38.664-.124 1.341.483 1.337.542 1.48.546 1.885.01.64-.43.99-.628 1.125-.848.576-1.94.35-2.773-.874-.247-.364-.692-1.146-.466-1.851.167-.51.546-.779.778-.936l.468.689zM516.58 838.753l-2.196 1.156 1.28 2.43 2.196-1.156.373.709-5.116 2.692-.373-.709 2.31-1.215-1.279-2.43-2.31 1.215-.373-.708 5.116-2.693zM521.148 871.202c-.401.009-1.147.045-1.169 1.375-.02 1.2.722 1.366 1.01 1.37.65.011.786-.507 1-1.313.231-.877.334-1.268.539-1.562.328-.467.763-.587 1.147-.582 1.179.02 1.672 1.142 1.654 2.232-.006.385-.083 1.16-.596 1.616-.358.315-.75.324-.991.337l.014-.833c.721-.029.893-.635.901-1.204.014-.8-.339-1.288-.916-1.296-.512-.01-.694.324-.874 1.026-.375 1.372-.41 1.524-.64 1.857-.362.531-.923.561-1.163.557-1.025-.017-1.79-.831-1.764-2.313.007-.44.094-1.336.687-1.784.43-.32.894-.32 1.174-.317l-.013.834zM525.037 878.362l-.181 1.406-4.935 1.014 4.514 2.267-.168 1.31-5.736-.736.1-.778 5.164.662-4.922-2.545.096-.755 5.365-1.152-5.132-.659.099-.771zM518.307 887.65l-.2.76c-.14.534-.256 1.1-.075 1.546.346.852 1.254 1.116 1.58 1.202.208.055 1.164.29 1.884-.083.489-.252.7-.677.88-1.358l.245-.93-4.314-1.136zm5.16.533l-.426 1.618c-.198.751-.43 1.634-1.322 2.061-.712.343-1.528.334-2.295.132-1.208-.318-1.82-1.017-2.048-1.533-.312-.67-.13-1.36.086-2.18l.415-1.572 5.59 1.474zM504.684 915.925c-.305-.26-.885-.729-1.785.248-.814.883-.37 1.5-.158 1.695.476.44.923.143 1.618-.315.756-.5 1.093-.724 1.44-.807.556-.13.96.07 1.243.33.865.798.487 1.963-.25 2.763-.261.283-.835.81-1.52.81-.476-.004-.775-.258-.963-.41l.565-.61c.557.458 1.087.12 1.472-.299.542-.588.603-1.185.18-1.576-.377-.347-.735-.22-1.335.185-1.193.773-1.32.863-1.712.958-.623.156-1.062-.195-1.238-.358-.753-.695-.781-1.809.223-2.898.298-.323.958-.933 1.698-.873.534.047.88.356 1.087.545l-.565.612zM500.481 922.369l-.716.629c-.397.348-.979.912-.355 1.622.597.68 1.163.184 1.476-.091l.842-.74-1.247-1.42zm2.277 1.379l-1.457 1.279c-.529.465-.916.752-1.49.691-.413-.032-.775-.238-1.06-.562a1.53 1.53 0 01-.401-1.15c.027-.429.201-.838.983-1.524l.705-.619-1.697-1.931.602-.528 3.815 4.344zM494.88 925.56l-1.776 1.276 2.52 1.68-.744-2.956zm1.525 3.372l-.697.5-5.272-3.332.709-.509 1.385.858 2.18-1.565-.372-1.588.67-.48 1.397 6.116zM487.487 932.687c.126.158.609.806 1.579.26 1.215-.681.734-2.045.263-2.883-.533-.95-1.381-1.822-2.533-1.176-.308.172-.557.414-.648.76-.072.296.007.536.053.667l-.768.43c-.452-1.05.232-1.975 1.097-2.461 1.774-.996 2.994.376 3.543 1.354.595 1.06 1.073 2.877-.722 3.884-.71.4-1.877.678-2.61-.416l.746-.42zM484.626 935.862l-3.335 1.43-.268-.625 2.599-1.115-.71-1.656-2.474 1.06-.265-.618 2.473-1.06-.758-1.768-2.657 1.14-.278-.648 3.394-1.455zM477.77 938.637l-1.363.394-2.892-4.127-.287 5.045-1.269.366-1.604-5.557.754-.217 1.444 5.002.38-5.529.731-.21 3.19 4.463-1.436-4.97.747-.216zM468.245 941.064l-3.582.566-.106-.672 2.79-.441-.28-1.779-2.657.42-.105-.664 2.656-.42-.299-1.897-2.854.45-.11-.695 3.645-.576zM460.25 937.967c-.036-.4-.122-1.142-1.45-1.073-1.2.061-1.315.813-1.3 1.1.033.649.56.75 1.379.909.89.17 1.287.247 1.594.432.488.295.639.722.658 1.105.061 1.177-1.025 1.745-2.114 1.802-.384.02-1.163-.005-1.652-.486-.339-.336-.375-.727-.404-.966l.832-.043c.077.72.694.848 1.262.818.8-.04 1.261-.425 1.233-1.001-.027-.512-.372-.671-1.085-.803-1.394-.282-1.547-.306-1.895-.512-.555-.325-.623-.883-.635-1.123-.053-1.024.707-1.841 2.188-1.917.44-.023 1.34.003 1.825.564.35.407.382.87.397 1.151l-.832.043zM452.565 942.172l.148-2.477-2.74-.164-.15 2.477-.798-.047.344-5.77.799.047-.155 2.606 2.741.164.156-2.606.798.048-.344 5.77zM422.469 929.285c.195-.35.54-1.01-.594-1.703-1.026-.625-1.544-.068-1.694.178-.337.554.04.934.627 1.526.64.643.925.93 1.074 1.255.236.52.12.955-.079 1.283-.613 1.005-1.83.864-2.76.297-.329-.2-.959-.66-1.092-1.332-.09-.467.1-.81.21-1.024l.713.433c-.341.636.095 1.09.58 1.386.684.417 1.282.36 1.582-.133.267-.438.07-.763-.443-1.273-.993-1.019-1.106-1.125-1.276-1.492-.275-.58-.018-1.079.107-1.284.534-.875 1.622-1.122 2.887-.35.377.228 1.105.757 1.19 1.493.059.534-.175.934-.321 1.173l-.711-.433zM414.304 928.897l-1.107-.885 1.697-4.742-4.28 2.678-1.033-.824 3.608-4.517.613.49-3.248 4.066 4.73-2.882.595.475-1.802 5.18 3.228-4.041.607.484zM409.858 918.321l-.545-.564c-.383-.398-.807-.79-1.282-.866-.908-.147-1.605.492-1.847.725-.155.15-.853.846-.906 1.655-.039.548.215.95.704 1.456l.667.691 3.209-3.097zm-3.13 4.134l-1.163-1.204c-.54-.558-1.173-1.215-1.077-2.198.077-.786.508-1.48 1.078-2.03.899-.868 1.813-1.027 2.373-.955.734.08 1.229.593 1.818 1.204l1.13 1.17-4.16 4.013zM392.7 892.041c.38-.126 1.083-.379.715-1.656-.334-1.155-1.092-1.094-1.369-1.014-.623.18-.602.715-.57 1.548.037.906.053 1.31-.057 1.65a1.305 1.305 0 01-.926.893c-1.132.327-1.933-.6-2.235-1.647-.106-.37-.26-1.134.096-1.72.25-.406.622-.53.848-.612l.231.8c-.681.238-.666.868-.509 1.414.222.77.702 1.132 1.257.972.492-.143.568-.514.534-1.239-.043-1.421-.055-1.576.068-1.962.189-.613.716-.807.948-.874.985-.284 1.953.27 2.364 1.694.123.423.303 1.305-.132 1.906-.317.433-.762.57-1.031.647l-.231-.8zM389.371 885.105l-.166-.938c-.092-.521-.272-1.311-1.202-1.146-.891.157-.76.899-.688 1.309l.194 1.104 1.862-.329zm-2.361 1.23l-.337-1.908c-.122-.694-.167-1.175.183-1.635.242-.335.605-.538 1.03-.613.434-.077.83 0 1.192.254.353.246.611.607.793 1.632l.163.924 2.531-.447.14.788-5.695 1.005zM389.555 878.656l-.167-2.18-2.744 1.279 2.911.9zm-3.672-.45l-.065-.855 5.585-2.77.066.87-1.453.737.205 2.673 1.548.509.063.821-5.949-1.985zM387.3 868.636c-.202.025-1.005.102-1.043 1.215-.046 1.392 1.37 1.688 2.33 1.719 1.088.037 2.275-.236 2.319-1.556.012-.352-.065-.69-.313-.948a1.143 1.143 0 00-.599-.3l.03-.88c1.132.158 1.569 1.222 1.536 2.214-.068 2.032-1.873 2.364-2.993 2.327-1.217-.04-3.017-.574-2.949-2.63.027-.816.394-1.957 1.71-2.017l-.029.856zM386.062 864.54l.502-3.595.674.094-.39 2.801 1.785.249.371-2.666.667.093-.372 2.667 1.905.265.399-2.864.698.097-.51 3.657zM387.236 857.244l.368-1.369 5.027-.34-4.168-2.854.343-1.276 5.584 1.5-.204.758-5.027-1.35 4.535 3.184-.198.735-5.47.42 4.996 1.343-.201.75zM390.077 847.838l1.37-3.361.63.257-1.066 2.619 1.669.68 1.016-2.493.623.254-1.016 2.493 1.781.726 1.092-2.679.653.266-1.395 3.42zM396.876 842.591c.36.176 1.039.487 1.669-.685.57-1.058-.015-1.545-.27-1.682-.57-.308-.93.09-1.49.709-.608.673-.879.973-1.196 1.14a1.306 1.306 0 01-1.287-.01c-1.036-.558-.96-1.782-.445-2.742.182-.338.607-.993 1.272-1.163.462-.115.816.056 1.035.156l-.395.734c-.653-.306-1.083.155-1.353.656-.38.705-.29 1.3.218 1.572.452.243.767.03 1.249-.51.963-1.048 1.063-1.166 1.42-1.357.566-.305 1.078-.075 1.29.04.903.485 1.209 1.56.506 2.865-.208.388-.697 1.144-1.43 1.27-.528.087-.942-.126-1.188-.259l.395-.734zM397.268 833.832l2.04 1.416 1.567-2.257-2.04-1.416.457-.658 4.751 3.298-.458.658-2.144-1.49-1.567 2.258 2.145 1.489-.457.658-4.75-3.298zM423.884 814.78c.199.348.586.986 1.765.372 1.066-.556.857-1.287.724-1.543-.3-.575-.82-.448-1.63-.251-.882.214-1.275.31-1.63.27a1.306 1.306 0 01-1.059-.732c-.544-1.045.207-2.013 1.173-2.517.342-.177 1.061-.48 1.706-.246.447.165.642.505.767.71l-.738.386c-.369-.621-.983-.482-1.487-.219-.71.37-.97.911-.705 1.423.237.455.617.456 1.32.279 1.385-.324 1.535-.366 1.937-.322.638.064.933.544 1.045.757.473.91.122 1.968-1.193 2.653-.391.203-1.22.554-1.895.246-.487-.225-.71-.633-.84-.882l.74-.385zM428.444 807.986l1.33-.49 3.178 3.908-.075-5.05 1.24-.457 1.997 5.427-.736.27-1.798-4.884.017 5.54-.714.263-3.5-4.224 1.786 4.855-.73.268zM439.797 809.659l.765-.173c.539-.122 1.094-.28 1.406-.646.596-.701.412-1.628.337-1.956-.047-.211-.28-1.169-.943-1.634-.45-.318-.924-.309-1.611-.154l-.937.212.983 4.35zm-1.911-4.823l1.633-.369c.758-.17 1.648-.372 2.438.222.633.473 1.003 1.201 1.177 1.975.275 1.218-.063 2.083-.415 2.523-.45.587-1.145.743-1.973.93l-1.586.36-1.274-5.64z" fill="#000"/><path stroke="#000" d="M454.65 801.81l1.425 7.017M452.379 803.342l5.968 3.953M451.855 806.03l7.016-1.424M453.387 808.303l3.952-5.97M519.026 853.06l1.424 7.017M516.754 854.592l5.968 3.953M516.23 857.28l7.016-1.424M517.76 859.553l3.954-5.97M513.855 901.753l1.425 7.016M511.583 903.284l5.969 3.953M511.06 905.973l7.015-1.425M512.59 908.245l3.954-5.97M411.355 818.628l1.425 7.016M409.084 820.159l5.968 3.953M408.56 822.848l7.015-1.425M410.09 825.12l3.954-5.97M396.98 902.378l1.425 7.016M394.708 903.909l5.969 3.953M394.185 906.598l7.015-1.425M395.716 908.87l3.953-5.97M433.855 932.378l1.425 7.016M431.584 933.909l5.968 3.953M431.06 936.598l7.015-1.425M432.59 938.87l3.954-5.97M440.362 907.12l-.635-1.505 15.523-15.91-16.048-16.448-.001-1.799 16.05-16.51-15.527-15.97.636-1.507h29.97l.637 1.507-15.526 15.97 16.05 16.51-.002 1.799-16.048 16.448 15.523 15.91-.635 1.505z"/></g></svg>