<svg width="152" height="152" fill="none" xmlns="http://www.w3.org/2000/svg"><path fill-rule="evenodd" clip-rule="evenodd" d="M.643 76C.643 34.382 34.382.643 76 .643S151.357 34.382 151.357 76 117.618 151.357 76 151.357.643 117.618.643 76zM76 1.357C34.776 1.357 1.357 34.776 1.357 76c0 41.224 33.419 74.643 74.643 74.643 41.224 0 74.643-33.419 74.643-74.643 0-41.224-33.419-74.643-74.643-74.643zM16.268 76c0-32.99 26.743-59.732 59.732-59.732 32.989 0 59.732 26.743 59.732 59.732 0 32.989-26.743 59.732-59.732 59.732-32.99 0-59.732-26.743-59.732-59.732zM76 16.982c-32.595 0-59.018 26.423-59.018 59.018S43.405 135.018 76 135.018 135.018 108.595 135.018 76 108.595 16.982 76 16.982zm12.797-4.555c-1.296-.263-1.197-1.008-1.134-1.402l-.83-.163c-.055.275-.136.732.1 1.214.337.664 1.197.914 1.627 1.002 1.445.294 2.386-.307 2.586-1.315.05-.238.118-.794-.337-1.245-.267-.269-.41-.338-1.534-.883l-.167-.08c-.654-.301-.947-.545-.847-1.046.118-.563.654-.82 1.44-.663.554.112 1.12.394 1.015 1.107l.816.163.004-.03c.031-.244.08-.618-.154-1.009-.355-.588-1.103-.807-1.476-.882-1.066-.22-2.256.062-2.487 1.22-.074.376-.037.826.362 1.233.24.246.588.412 1.338.769l.095.044.015.008c.745.352 1.224.579 1.094 1.213-.056.282-.355.982-1.526.745zm6.536-3.818l1.844.582c.673.213 1.115.394 1.358.92.187.37.2.789.069 1.202-.13.419-.38.738-.773.938-.38.2-.822.263-1.807-.05l-.89-.281-.773 2.453-.76-.244 1.732-5.52zm0 2.666l.91.288c.504.156 1.283.363 1.57-.538.27-.854-.427-1.084-.828-1.216l-.013-.005-1.066-.338-.573 1.81zm8.486.438l-.785-.338-4.505 4.362.754.326 1.165-1.14 2.462 1.059-.019 1.633.797.344.131-6.246zm-.872 3.574l-2.006-.864 2.143-2.165-.137 3.029zm7.876 1.783l.005-.014c.077-.209.346-.937-.597-1.475-1.209-.688-2.125.432-2.598 1.264-.536.945-.842 2.128.299 2.779.305.175.641.263.984.163a1.16 1.16 0 00.534-.379l.008-.01.76.433c-.66.932-1.807.826-2.666.331-1.764-1.001-1.222-2.76-.673-3.736.598-1.058 1.9-2.41 3.682-1.39.71.401 1.545 1.258.991 2.454l-.729-.42zm7.128 2.936l-2.935-2.116-3.358 4.7 2.991 2.153.411-.575-2.343-1.684 1.115-1.565 2.181 1.571.393-.544-2.181-1.571 1.047-1.465 2.286 1.646.393-.55zm2.96 2.315l1.04.964-2.025 4.613 4.443-2.372.966.895-3.907 4.255-.573-.532 3.514-3.83-4.91 2.541-.555-.513 2.156-5.044-3.495 3.805-.567-.526 3.913-4.256zm9.327 9.65l-2.336-2.765-4.393 3.742 2.38 2.816.536-.456-1.863-2.21 1.458-1.245 1.732 2.053.511-.438-1.732-2.053 1.371-1.164 1.819 2.159.517-.438zm-.828 5.696c-.324.238-.91.695-.162 1.796.673.995 1.37.701 1.607.538.535-.362.35-.868.064-1.648l-.002-.004c-.317-.85-.454-1.226-.454-1.59 0-.569.286-.92.598-1.138.972-.664 2.019-.032 2.629.87.218.319.598.995.443 1.664-.108.443-.397.674-.585.825l-.026.02-.467-.688c.573-.438.361-1.033.043-1.502-.448-.664-1.015-.858-1.489-.532-.424.288-.38.663-.124 1.345l.093.26c.395 1.1.449 1.251.449 1.624.012.645-.43.989-.63 1.127-.847.575-1.931.35-2.766-.877-.249-.362-.692-1.145-.468-1.852.168-.512.541-.775.771-.938h.002l.474.7zm5.371 5.551l2.187-1.157-.374-.708-5.103 2.698.374.707 2.305-1.22 1.277 2.434-2.305 1.22.374.708 5.103-2.698-.374-.707-2.187 1.158-1.277-2.435zm6.742 31.337c-.399.006-1.141.043-1.166 1.376-.018 1.202.723 1.371 1.01 1.371.648.013.785-.507.997-1.314l.02-.078c.216-.822.316-1.202.516-1.487a1.3 1.3 0 011.146-.582c1.171.019 1.664 1.145 1.651 2.234-.006.388-.081 1.164-.592 1.621-.346.306-.728.325-.972.337l-.018.001.012-.832c.717-.025.891-.632.897-1.202.013-.8-.336-1.289-.916-1.302-.511-.006-.691.326-.872 1.027l-.027.099c-.349 1.285-.39 1.436-.609 1.76-.361.532-.922.563-1.158.557-1.022-.02-1.783-.833-1.758-2.316.007-.444.094-1.34.686-1.784.43-.319.891-.319 1.171-.319l-.018.833zm3.694 8.574l.181-1.409-5.732-.732-.1.77 5.116.657-5.347 1.152-.093.757 4.91 2.547-5.147-.663-.1.782 5.72.739.169-1.315-4.499-2.272 4.922-1.013zm-1.582 9.2l-2.393-.632-.698 2.66 2.393.632-.206.775-5.576-1.477.205-.776 2.518.664.697-2.66-2.517-.663.206-.776 5.576 1.477-.205.776zm-20.307 27.255c.897-.982 1.477-.513 1.782-.25l.567-.62c-.205-.187-.554-.5-1.084-.544-.741-.057-1.396.551-1.695.876-1.003 1.095-.978 2.209-.224 2.904.174.163.611.513 1.234.357.377-.091.507-.175 1.577-.873l.13-.085c.604-.4.96-.532 1.333-.181.418.388.362.988-.18 1.577-.387.419-.916.757-1.471.3l-.561.614.015.011c.187.151.483.389.945.395.685.007 1.252-.525 1.514-.807.735-.801 1.109-1.965.249-2.766a1.291 1.291 0 00-1.24-.332c-.338.08-.67.301-1.405.789l-.028.018c-.691.457-1.14.751-1.614.313-.211-.194-.654-.813.156-1.696zm-.137 7.586l-1.452 1.282c-.529.464-.916.752-1.489.695-.411-.031-.772-.238-1.053-.563-.286-.332-.43-.707-.399-1.152.025-.431.2-.838.985-1.527l.704-.619-1.689-1.934.599-.526 3.794 4.344zm-2.274-1.384l-.717.632c-.392.351-.978.914-.355 1.628.596.679 1.155.185 1.467-.091l.004-.003.841-.739-1.24-1.427zm-4.754 7.072l.691-.5-1.389-6.121-.667.482.368 1.59-2.175 1.564-1.383-.857-.704.507 5.259 3.335zm-2.599-2.597l1.77-1.277.741 2.961-2.511-1.684zm-5.601 5.858l.01.012c.138.176.618.782 1.566.251 1.209-.682.729-2.047.262-2.885-.53-.951-1.377-1.828-2.524-1.177-.305.175-.554.413-.648.758-.073.296.005.532.049.665l.001.004-.766.432c-.449-1.051.23-1.978 1.09-2.466 1.77-.995 2.985.376 3.533 1.358.592 1.064 1.072 2.879-.716 3.887-.711.4-1.87.676-2.605-.42l.748-.419zm-6.175 4.613l3.327-1.434-2.268-5.326-3.383 1.459.274.651 2.648-1.139.754 1.771-2.467 1.064.261.619 2.468-1.064.71 1.659-2.592 1.114.268.626zm-3.514 1.345l-1.359.394-2.885-4.13-.286 5.05-1.265.37-1.601-5.564.754-.219 1.439 5.007.38-5.539.729-.213 3.178 4.469-1.433-4.976.741-.213 1.608 5.564zm-13.067 3.004l3.57-.569-.903-5.72-3.632.575.112.695 2.847-.451.3 1.903-2.649.419.106.664 2.648-.42.28 1.784-2.784.444.105.676zm-4.392-3.673c-.038-.401-.125-1.146-1.446-1.077-1.196.063-1.308.814-1.296 1.102.031.65.555.751 1.377.907.891.169 1.284.25 1.59.432.485.294.635.72.653 1.108.063 1.176-1.022 1.746-2.106 1.802-.38.019-1.159-.006-1.65-.488-.335-.336-.374-.721-.4-.965v-.005l.829-.044c.075.72.692.851 1.259.82.797-.044 1.258-.426 1.227-1.001-.025-.514-.368-.67-1.078-.802l-.181-.036c-1.223-.248-1.38-.28-1.707-.477-.554-.325-.623-.882-.635-1.126-.05-1.027.704-1.847 2.18-1.922.443-.025 1.334.007 1.82.564.349.406.38.87.392 1.151l-.828.057zm-7.515 1.733l-.15 2.479.792.05.343-5.777-.798-.05-.156 2.61-2.729-.163.156-2.61-.797-.05-.343 5.777.797.05.15-2.479 2.735.163zm-30.157-10.426c.193-.351.542-1.014-.592-1.703-1.022-.626-1.54-.069-1.689.175-.336.557.038.939.623 1.528l.03.03c.615.623.895.907 1.042 1.227.237.52.118.958-.081 1.283-.61 1.008-1.826.864-2.754.295-.324-.201-.953-.658-1.09-1.333-.086-.462.093-.803.206-1.017l.005-.01.71.432c-.342.638.094 1.089.58 1.389.68.42 1.277.363 1.577-.131.267-.438.068-.764-.443-1.277l-.126-.129c-.874-.901-.984-1.014-1.145-1.367-.274-.582-.019-1.082.106-1.283.53-.876 1.614-1.12 2.879-.35.373.232 1.103.757 1.184 1.496.056.532-.175.932-.318 1.176l-.704-.431zm-9.24-1.277l1.102.888 3.602-4.524-.605-.489-3.221 4.05 1.794-5.189-.592-.475-4.716 2.885 3.24-4.074-.611-.488-3.595 4.524 1.028.826 4.268-2.684-1.695 4.75zm-7.004-6.14l1.782-1.727-1.9-1.978-1.783 1.728-.554-.576 4.143-4.018.555.576-1.87 1.815 1.901 1.977 1.87-1.815.554.576-4.144 4.018-.554-.576zM14.18 93.762c.368 1.276-.33 1.533-.71 1.658l.23.801c.269-.081.711-.219 1.029-.65.43-.601.255-1.484.13-1.91-.404-1.426-1.37-1.983-2.355-1.695-.23.069-.76.263-.947.876-.118.367-.113.527-.075 1.75l.007.215c.037.726-.038 1.095-.53 1.24-.555.162-1.028-.201-1.252-.97-.162-.545-.175-1.177.504-1.415l-.23-.801-.021.007c-.226.082-.585.212-.827.606-.355.588-.199 1.352-.093 1.721.305 1.051 1.103 1.978 2.23 1.652a1.3 1.3 0 00.923-.895c.106-.338.093-.745.056-1.652v-.02c-.032-.827-.051-1.352.567-1.532.274-.081 1.034-.144 1.364 1.014zm-6.386-4.056l-.337-1.909c-.124-.694-.168-1.176.181-1.64.243-.337.604-.537 1.028-.613.43-.075.829 0 1.19.257.35.244.61.607.792 1.633l.162.927 2.523-.445.137.789-5.676 1.001zm2.355-1.233l-.162-.938c-.093-.52-.274-1.315-1.196-1.146-.891.157-.76.901-.686 1.308l.193 1.108 1.851-.332zm-3.54-7.766l.063.857 5.932 1.99-.062-.826-1.546-.507-.193-2.678 1.446-.739-.069-.87-5.57 2.773zm3.552-.877l.169 2.185-2.904-.908 2.736-1.277zm-2.08-7.848l-.014.002c-.22.027-.99.122-1.027 1.213-.044 1.395 1.364 1.69 2.324 1.72 1.084.038 2.268-.237 2.312-1.558.012-.35-.063-.694-.312-.951a1.176 1.176 0 00-.598-.3l.031-.883c1.128.157 1.564 1.227 1.533 2.216-.069 2.034-1.87 2.365-2.985 2.328-1.215-.044-3.01-.576-2.94-2.635.024-.82.392-1.959 1.707-2.022l-.032.87zm-.736-7.698l-.498 3.599 5.713.801.511-3.661-.698-.1-.398 2.866-1.9-.263.373-2.672-.667-.094-.373 2.672-1.783-.25.393-2.804-.673-.094zm.673-3.71l.368-1.371 5.01-.338-4.157-2.86.343-1.277 5.57 1.502-.205.757-5.01-1.352 4.518 3.186-.2.738-5.452.42 4.979 1.345-.2.751-5.564-1.502zm4.2-12.787l-1.365 3.367 5.34 2.184 1.39-3.423-.648-.27-1.09 2.686-1.777-.726 1.01-2.497-.623-.257-1.01 2.497-1.663-.682 1.065-2.622-.63-.257zm5.408-1.884c.361.175 1.034.488 1.664-.688.567-1.058-.013-1.546-.268-1.684-.567-.306-.929.088-1.483.708-.604.675-.879.976-1.19 1.139a1.29 1.29 0 01-1.284-.013c-1.034-.557-.96-1.784-.442-2.747.18-.338.604-.995 1.265-1.165.453-.11.804.051 1.023.152l.011.005-.392.732c-.655-.306-1.078.157-1.353.657-.38.707-.286 1.302.218 1.578.45.244.767.03 1.247-.514l.125-.138c.844-.924.95-1.04 1.289-1.22.56-.306 1.072-.075 1.284.038.903.488 1.202 1.564.504 2.866-.205.388-.698 1.145-1.427 1.27-.53.088-.94-.125-1.183-.256l.392-.72zm2.424-7.353l-2.031-1.421-.455.657L22.3 41.09l.455-.657-2.137-1.49 1.564-2.258 2.137 1.49.455-.658-4.736-3.305-.454.658 2.03 1.42-1.563 2.26zM44.57 18.047c.199.35.585.989 1.757.375 1.065-.557.853-1.289.723-1.546-.3-.575-.817-.45-1.627-.25l-.095.023c-.812.197-1.189.288-1.531.246a1.293 1.293 0 01-1.053-.732c-.542-1.045.206-2.015 1.171-2.522.343-.175 1.06-.482 1.701-.244.433.159.633.491.758.699l.009.014-.735.388c-.368-.62-.979-.482-1.483-.219-.71.37-.966.914-.704 1.427.236.457.616.457 1.314.282l.023-.006c1.356-.32 1.512-.357 1.909-.32.635.063.928.545 1.04.758.474.913.125 1.971-1.19 2.66-.386.206-1.215.557-1.888.244-.486-.226-.704-.633-.835-.883l.736-.394zm5.857-7.285l-1.328.488 1.994 5.426.73-.269-1.783-4.863 3.49 4.231.71-.263-.019-5.545 1.795 4.894.735-.269-1.994-5.432-1.234.457.075 5.056-3.171-3.911zm8.866-2.841l.549 2.422 2.673-.607-.549-2.422.78-.176 1.27 5.645-.779.176-.573-2.547-2.673.606.573 2.548-.779.175-1.27-5.645.778-.175zm15.435-2.443l.471 2.324-1.977-1.31-.552.834 1.978 1.31-2.325.472.199.98 2.324-.472-1.31 1.978.834.552 1.31-1.978.472 2.325.98-.199-.472-2.325 1.978 1.31.552-.834-1.978-1.31 2.325-.472-.199-.98-2.325.472 1.31-1.978-.834-.552-1.31 1.978-.472-2.324-.98.199zm64.374 51.25l.472 2.324-1.977-1.31-.552.834 1.978 1.31-2.325.472.199.98 2.324-.472-1.309 1.978.833.552 1.31-1.978.472 2.325.98-.199-.472-2.325 1.978 1.31.552-.834-1.978-1.31 2.325-.472-.199-.98-2.325.472 1.31-1.978-.834-.552-1.31 1.978-.472-2.324-.98.199zm-5.17 48.692l.472 2.324-1.977-1.31-.553.834 1.978 1.31-2.325.472.199.98 2.325-.472-1.31 1.978.834.552 1.31-1.978.472 2.325.98-.199-.472-2.325 1.978 1.31.552-.834-1.977-1.31 2.324-.472-.199-.98-2.325.472 1.31-1.978-.834-.552-1.31 1.978-.472-2.324-.98.199zm-102.5-83.125l.472 2.324-1.977-1.31-.553.834 1.979 1.31-2.326.472.2.98 2.324-.472-1.31 1.978.834.552 1.31-1.978.472 2.325.98-.199-.472-2.326 1.978 1.31.552-.833-1.977-1.31 2.324-.472-.2-.98-2.324.472 1.31-1.978-.834-.552-1.31 1.978-.472-2.325-.98.2zm-14.375 83.75l.472 2.324-1.977-1.31-.553.834 1.978 1.31-2.325.472.2.98 2.324-.472-1.31 1.978.834.552 1.31-1.978.472 2.325.98-.199-.472-2.325 1.978 1.31.552-.834-1.977-1.31 2.324-.472-.2-.98-2.324.472 1.31-1.978-.834-.552-1.31 1.978-.472-2.324-.98.199zm36.875 30l.472 2.324-1.977-1.31-.553.834 1.978 1.31-2.325.472.2.98 2.324-.472-1.31 1.978.834.552 1.31-1.978.472 2.325.98-.199-.472-2.325 1.978 1.31.552-.834-1.978-1.31 2.325-.472-.2-.98-2.324.472 1.31-1.978-.834-.552-1.31 1.978-.472-2.324-.98.199zm34.696-88.211H64.18l-1.203 2.892 11.377 11.877-11.522 12.03.002 2.522 11.517 11.98-11.372 11.829 1.203 2.893h24.444l1.203-2.894-11.372-11.828 11.517-11.98.002-2.523-11.522-12.029 11.377-11.877-1.204-2.892zM65.69 75.779l10.714-11.185 10.714 11.185v.224L76.405 87.148 65.692 76.003v-.224zM85.901 101l-9.496-9.879L66.909 101H85.9zm-19-50.31l9.504 9.923 9.504-9.922H66.901z" fill="#000"/></svg>