<svg width="212" height="212" xmlns="http://www.w3.org/2000/svg"><defs><filter color-interpolation-filters="auto" id="a"><feColorMatrix in="SourceGraphic" values="0 0 0 0 1.000000 0 0 0 0 1.000000 0 0 0 0 1.000000 0 0 0 1.000000 0"/></filter></defs><g transform="translate(-91 -736)" filter="url(#a)" fill="none" fill-rule="evenodd"><path d="M92.433 842.433c0 57.99 47.01 105 105 105s105-47.01 105-105-47.01-105-105-105-105 47.01-105 105z" stroke-opacity=".1" stroke="#000"/><path d="M114.308 842.433c0 45.908 37.216 83.125 83.125 83.125 45.908 0 83.125-37.217 83.125-83.125 0-45.909-37.217-83.125-83.125-83.125-45.909 0-83.125 37.216-83.125 83.125z" stroke="#000" opacity=".1"/><path d="M213.794 751.892c-.089.554-.229 1.589 1.596 1.957 1.648.332 2.063-.648 2.142-1.043.18-.89-.5-1.21-1.554-1.708-1.148-.54-1.66-.781-2.011-1.138-.56-.57-.616-1.2-.51-1.727.326-1.614 1.996-2.01 3.49-1.709.528.106 1.575.41 2.074 1.23.341.573.254 1.115.21 1.45l-1.143-.23c.144-1-.646-1.39-1.426-1.547-1.1-.221-1.859.14-2.017.931-.142.704.27 1.038 1.19 1.464 1.794.865 1.993.951 2.392 1.352.639.632.54 1.412.472 1.742-.284 1.406-1.597 2.25-3.63 1.84-.603-.121-1.814-.469-2.279-1.397-.333-.674-.216-1.313-.138-1.698l1.142.231zM224.568 752.245l1.273.403c.706.223 1.803.51 2.202-.751.381-1.21-.624-1.527-1.18-1.703l-1.498-.472-.797 2.523zm.002-3.727l2.588.817c.94.298 1.565.554 1.91 1.286.26.517.277 1.098.095 1.677-.187.587-.538 1.029-1.086 1.314-.536.278-1.152.366-2.542-.073l-1.25-.395-1.085 3.433-1.069-.338 2.439-7.721zM232.444 756.644l2.814 1.207.193-4.237-3.007 3.03zm2.939-4.266l1.103.472-.18 8.733-1.124-.481.027-2.284-3.453-1.48-1.634 1.593-1.063-.454 6.324-6.1zM246.32 760.34c.1-.265.527-1.312-.829-2.08-1.695-.962-2.98.602-3.645 1.771-.752 1.326-1.184 2.974.424 3.887.43.242.899.368 1.378.227a1.59 1.59 0 00.76-.547l1.074.608c-.931 1.3-2.534 1.151-3.743.466-2.475-1.403-1.715-3.858-.941-5.223.84-1.48 2.67-3.367 5.175-1.946.994.563 2.17 1.76 1.39 3.43l-1.042-.592zM252.213 761.49l4.125 2.958-.556.774-3.213-2.305-1.469 2.049 3.06 2.193-.55.766-3.058-2.194-1.567 2.185 3.286 2.356-.574.802-4.198-3.01zM260.486 767.685l1.458 1.344-2.84 6.451 6.243-3.313 1.359 1.254-5.485 5.948-.807-.746 4.938-5.354-6.89 3.554-.783-.721 3.029-7.054-4.907 5.322-.8-.738zM270.304 777.31l3.284 3.87-.727.616-2.559-3.016-1.922 1.631 2.436 2.871-.718.609-2.437-2.87-2.05 1.739 2.617 3.085-.751.638-3.343-3.94zM272.423 789.143c-.452.334-1.275.975-.23 2.513.947 1.39 1.927.98 2.262.754.75-.511.489-1.214.084-2.307-.443-1.19-.64-1.72-.642-2.22-.001-.799.398-1.287.842-1.59 1.362-.925 2.832-.042 3.689 1.22.303.444.84 1.393.621 2.328-.155.647-.596.974-.862 1.182l-.655-.964c.802-.613.508-1.443.06-2.1-.63-.928-1.425-1.201-2.09-.746-.594.403-.534.93-.174 1.878.676 1.871.759 2.073.764 2.638.015.898-.602 1.386-.88 1.575-1.186.807-2.715.49-3.881-1.223-.347-.51-.969-1.604-.652-2.592.233-.714.764-1.09 1.089-1.31l.655.964zM283.04 795.28l-3.076 1.62 1.791 3.402 3.076-1.618.522.991-7.162 3.77-.523-.993 3.234-1.701-1.79-3.403-3.235 1.702-.521-.992 7.162-3.77zM289.434 840.71c-.562.012-1.606.062-1.636 1.924-.028 1.682 1.01 1.913 1.415 1.92.908.015 1.1-.711 1.399-1.84.324-1.228.467-1.775.754-2.186.46-.654 1.068-.822 1.607-.815 1.649.028 2.34 1.6 2.315 3.125-.009.538-.117 1.624-.835 2.263-.5.44-1.05.453-1.388.47l.02-1.166c1.01-.04 1.25-.888 1.262-1.684.02-1.121-.475-1.804-1.283-1.816-.717-.012-.97.454-1.223 1.437-.526 1.921-.574 2.134-.896 2.6-.506.743-1.292.785-1.629.78-1.435-.024-2.504-1.164-2.47-3.238.011-.617.132-1.871.962-2.498.602-.45 1.252-.45 1.644-.443l-.018 1.166zM294.878 850.734l-.253 1.968-6.909 1.42 6.32 3.174-.236 1.835-8.03-1.032.14-1.09 7.23.928-6.891-3.564.135-1.057 7.51-1.612-7.184-.923.138-1.08zM285.457 863.738l-.28 1.063c-.197.747-.358 1.54-.106 2.164.485 1.193 1.756 1.563 2.212 1.683.292.077 1.63.407 2.639-.116.684-.353.98-.948 1.232-1.902l.342-1.3-6.039-1.592zm7.224.745l-.596 2.265c-.278 1.052-.603 2.288-1.851 2.886-.997.48-2.14.468-3.214.185-1.691-.445-2.546-1.425-2.866-2.146-.437-.938-.182-1.904.12-3.052l.58-2.201 7.827 2.063zM266.385 903.322c-.427-.363-1.239-1.02-2.5.347-1.14 1.237-.518 2.1-.221 2.373.667.616 1.292.2 2.265-.441 1.059-.7 1.53-1.014 2.017-1.13.778-.181 1.344.098 1.74.463 1.21 1.116.682 2.747-.351 3.868-.365.396-1.168 1.134-2.127 1.133-.666-.005-1.085-.36-1.348-.573l.79-.856c.78.643 1.522.168 2.06-.417.76-.823.846-1.659.253-2.206-.527-.486-1.028-.308-1.87.258-1.669 1.083-1.845 1.209-2.396 1.342-.871.218-1.486-.273-1.732-.5-1.055-.974-1.094-2.534.311-4.058.418-.453 1.342-1.307 2.378-1.223.748.066 1.232.498 1.521.763l-.79.857zM260.501 912.343l-1.003.881c-.555.487-1.37 1.277-.497 2.272.836.95 1.628.256 2.066-.129l1.18-1.036-1.746-1.988zm3.188 1.931l-2.04 1.79c-.741.651-1.284 1.053-2.088.968-.577-.045-1.083-.332-1.483-.787-.406-.462-.602-.993-.562-1.61.039-.6.283-1.173 1.378-2.134l.986-.866-2.375-2.704.843-.739 5.34 6.082zM252.658 916.811l-2.485 1.786 3.527 2.353-1.042-4.139zm2.135 4.72l-.974.7-7.382-4.664.992-.712 1.94 1.201 3.051-2.192-.52-2.222.938-.674 1.955 8.564zM242.309 926.788c.177.222.852 1.129 2.21.366 1.701-.955 1.027-2.864.369-4.037-.746-1.33-1.934-2.552-3.546-1.647-.431.241-.78.58-.908 1.063-.1.416.01.752.074.934l-1.074.604c-.633-1.47.323-2.766 1.535-3.446 2.484-1.394 4.192.526 4.96 1.895.834 1.485 1.502 4.027-1.01 5.438-.996.56-2.628.95-3.656-.583l1.046-.587zM238.304 931.234l-4.67 2.002-.375-.876 3.639-1.56-.995-2.319-3.463 1.485-.371-.866 3.463-1.485-1.061-2.474-3.721 1.596-.388-.908 4.75-2.037zM228.705 935.12l-1.908.55-4.049-5.777-.401 7.062-1.777.513-2.246-7.78 1.056-.304 2.02 7.003.533-7.74 1.024-.296 4.466 6.25-2.01-6.96 1.045-.301zM215.37 938.517l-5.014.792-.15-.94 3.907-.619-.393-2.49-3.719.588-.147-.93 3.719-.587-.42-2.657-3.995.631-.154-.974 5.103-.806zM204.178 934.18c-.052-.56-.171-1.597-2.032-1.502-1.68.087-1.84 1.14-1.818 1.542.046.907.783 1.049 1.93 1.271 1.246.239 1.802.347 2.23.605.685.414.896 1.01.923 1.548.085 1.646-1.436 2.443-2.96 2.521-.537.027-1.629-.007-2.314-.68-.473-.47-.525-1.017-.564-1.351l1.165-.06c.107 1.005.97 1.186 1.766 1.145 1.12-.058 1.766-.596 1.726-1.403-.037-.717-.52-.939-1.518-1.124-1.953-.394-2.167-.427-2.654-.717-.776-.455-.872-1.236-.89-1.572-.073-1.434.991-2.577 3.064-2.684.616-.032 1.876.004 2.556.79.49.57.535 1.219.555 1.612l-1.165.06zM193.418 940.068l.207-3.469-3.837-.229-.208 3.469-1.119-.067.483-8.078 1.118.067-.217 3.647 3.838.23.217-3.648 1.119.066-.482 8.078zM151.283 922.026c.273-.49.757-1.415-.831-2.384-1.437-.875-2.161-.096-2.371.25-.473.774.056 1.307.877 2.136.895.9 1.294 1.3 1.504 1.756.33.727.168 1.337-.11 1.796-.859 1.408-2.563 1.21-3.865.416-.46-.28-1.342-.923-1.53-1.864-.125-.654.142-1.136.297-1.434l.996.606c-.478.891.133 1.526.813 1.94.957.584 1.795.503 2.215-.186.373-.613.099-1.068-.62-1.782-1.391-1.426-1.55-1.575-1.787-2.088-.385-.812-.025-1.511.15-1.798.746-1.225 2.27-1.57 4.04-.491.528.32 1.548 1.06 1.667 2.091.083.747-.245 1.308-.449 1.642l-.996-.606zM139.853 921.483l-1.55-1.24 2.376-6.638-5.993 3.75-1.446-1.155 5.052-6.323.857.686-4.546 5.691 6.623-4.034.832.665-2.523 7.253 4.52-5.658.85.678zM133.628 906.677l-.763-.79c-.537-.557-1.13-1.106-1.794-1.213-1.272-.205-2.247.689-2.586 1.016-.217.21-1.194 1.184-1.27 2.316-.053.767.302 1.33.987 2.039l.934.967 4.492-4.335zm-4.383 5.787l-1.627-1.685c-.755-.782-1.642-1.701-1.507-3.078.106-1.1.711-2.072 1.509-2.842 1.257-1.215 2.538-1.438 3.322-1.337 1.027.112 1.72.83 2.545 1.686l1.581 1.637-5.823 5.62zM109.608 869.885c.532-.178 1.515-.531 1-2.32-.467-1.616-1.529-1.531-1.916-1.419-.873.252-.844 1.001-.798 2.167.051 1.27.074 1.835-.08 2.311-.247.76-.78 1.101-1.297 1.25-1.584.457-2.706-.841-3.129-2.306-.148-.518-.364-1.588.134-2.408.35-.569.871-.743 1.188-.857l.323 1.12c-.953.334-.932 1.215-.712 1.98.31 1.078.983 1.584 1.759 1.36.69-.2.796-.72.748-1.734-.06-1.99-.077-2.207.095-2.746.265-.86 1.003-1.13 1.327-1.225 1.379-.398 2.735.378 3.31 2.372.172.592.424 1.827-.185 2.668-.444.607-1.066.798-1.443.907l-.324-1.12zM104.947 860.175l-.233-1.315c-.129-.729-.38-1.835-1.683-1.604-1.247.22-1.065 1.259-.963 1.833l.272 1.545 2.607-.46zm-3.306 1.722l-.472-2.673c-.171-.971-.233-1.644.257-2.288.337-.47.846-.753 1.443-.858.606-.108 1.16 0 1.667.355.494.345.856.85 1.11 2.286l.228 1.292 3.544-.626.195 1.104-7.972 1.408zM105.204 851.145l-.234-3.051-3.842 1.79 4.076 1.261zm-5.14-.63l-.092-1.196 7.82-3.88.092 1.218-2.034 1.033.286 3.743 2.168.711.088 1.15-8.329-2.779zM102.046 837.117c-.281.036-1.406.143-1.459 1.7-.065 1.95 1.917 2.364 3.262 2.408 1.523.052 3.184-.33 3.246-2.179.017-.492-.09-.967-.437-1.327a1.6 1.6 0 00-.84-.42l.042-1.232c1.585.221 2.197 1.71 2.15 3.1-.094 2.845-2.622 3.31-4.19 3.258-1.703-.057-4.223-.804-4.127-3.682.037-1.142.551-2.74 2.393-2.824l-.04 1.198zM100.314 831.382l.702-5.032.944.132-.547 3.921 2.5.349.52-3.732.933.13-.52 3.733 2.666.37.558-4.008.978.135-.714 5.12zM101.958 821.169l.515-1.917 7.037-.477-5.835-3.995.48-1.787 7.818 2.102-.285 1.06-7.039-1.891 6.35 4.458-.277 1.03-7.658.588 6.994 1.88-.282 1.05zM105.935 808l1.917-4.706.883.36-1.493 3.667 2.337.952 1.422-3.49.872.355-1.422 3.491 2.494 1.016 1.528-3.75.914.373-1.952 4.788zM115.453 800.655c.504.246 1.455.68 2.337-.96.797-1.481-.021-2.163-.377-2.355-.8-.43-1.303.126-2.087.993-.852.943-1.23 1.363-1.674 1.596-.709.37-1.327.241-1.802-.014-1.451-.78-1.345-2.494-.623-3.838.255-.474.85-1.39 1.78-1.629.648-.16 1.143.08 1.45.22l-.554 1.026c-.914-.428-1.516.217-1.894.918-.531.988-.405 1.82.306 2.202.633.34 1.073.042 1.748-.715 1.349-1.467 1.489-1.632 1.99-1.899.79-.428 1.508-.106 1.804.054 1.265.68 1.692 2.184.709 4.012-.292.544-.977 1.602-2.001 1.777-.741.124-1.32-.175-1.665-.36l.553-1.028zM116.002 788.391l2.856 1.984 2.194-3.16-2.856-1.983.64-.922 6.651 4.618-.64.92-3.003-2.084-2.193 3.16 3.003 2.085-.64.92-6.65-4.616zM153.265 761.718c.278.488.82 1.381 2.47.522 1.494-.778 1.2-1.802 1.014-2.16-.419-.806-1.149-.628-2.283-.352-1.234.3-1.784.435-2.28.378-.795-.092-1.235-.547-1.483-1.024-.761-1.463.29-2.819 1.642-3.524.478-.248 1.485-.672 2.388-.345.626.23.899.707 1.075.995l-1.035.54c-.516-.87-1.376-.675-2.081-.307-.995.518-1.36 1.276-.986 1.992.331.637.863.638 1.847.39 1.939-.453 2.149-.511 2.711-.45.895.09 1.308.761 1.463 1.06.663 1.273.171 2.755-1.67 3.714-.547.284-1.707.775-2.653.344-.682-.314-.992-.886-1.174-1.235l1.035-.538zM159.648 752.208l1.862-.685 4.45 5.47-.105-7.07 1.736-.64 2.795 7.597-1.03.379-2.517-6.838.023 7.756-.999.368-4.9-5.914 2.5 6.797-1.02.376zM175.542 754.549l1.072-.242c.754-.171 1.531-.392 1.968-.904.835-.982.577-2.28.473-2.738-.067-.296-.393-1.636-1.322-2.288-.629-.445-1.293-.433-2.255-.216l-1.312.297 1.376 6.091zm-2.675-6.752l2.286-.516c1.061-.239 2.307-.52 3.414.31.886.662 1.404 1.683 1.648 2.765.385 1.705-.089 2.916-.581 3.533-.631.821-1.604 1.04-2.763 1.302l-2.22.502-1.784-7.896z" fill="#000"/><path stroke="#000" d="M196.337 743.562l1.995 9.822M193.157 745.705l8.356 5.535M192.424 749.47l9.822-1.995M194.568 752.65l5.533-8.356M286.463 815.312l1.994 9.822M283.282 817.455l8.356 5.535M282.549 821.22l9.822-1.995M284.693 824.4l5.533-8.356M279.224 883.48l1.995 9.823M276.044 885.624l8.356 5.535M275.31 889.389l9.822-1.995M277.454 892.569l5.535-8.356M135.724 767.106l1.995 9.822M132.544 769.249l8.356 5.535M131.81 773.014l9.822-1.995M133.954 776.194l5.535-8.356M115.599 884.356l1.995 9.822M112.419 886.499l8.356 5.535M111.686 890.264l9.82-1.995M113.829 893.444l5.535-8.356M167.224 926.356l1.995 9.822M164.044 928.499l8.356 5.535M163.31 932.264l9.822-1.995M165.454 935.444l5.535-8.356M176.334 890.995l-.89-2.107 21.733-22.274-22.467-23.027-.002-2.518 22.47-23.114-21.738-22.36.89-2.108h41.96l.891 2.11-21.737 22.358 22.47 23.113-.002 2.519-22.468 23.027 21.732 22.273-.889 2.108z"/></g></svg>